<svg width="634" height="127" viewBox="0 0 634 127" fill="none" xmlns="http://www.w3.org/2000/svg">
<mask id="path-1-outside-1_1_4" maskUnits="userSpaceOnUse" x="-0.652679" y="-0.70837" width="635" height="128" fill="black">
<rect fill="white" x="-0.652679" y="-0.70837" width="635" height="128"/>
<path d="M3.34732 52.6608L12.8395 5.66858L14.0407 4.99475L16.3844 7.66077L20.2809 4.29163L24.236 9.15491L26.7555 4.81897H27.1071L37.3317 51.6354L36.2477 52.1041L33.1715 48.0319L32.0876 51.5182L29.8903 50.1412L28.6891 51.3424L26.404 44.3112L12.4294 44.4283L10.6715 52.3971L9.1188 51.5182L8.09341 52.4557L6.95084 49.0573L4.07974 53.1295L3.34732 52.6608ZM14.1579 37.2213L25.7301 36.4596L21.1891 17.2408L18.7868 16.8307L14.1579 37.2213Z"/>
<path d="M45.529 16.2741L45.734 15.1608C47.9411 14.4381 50.1481 13.8912 52.3551 13.5201C54.5817 13.1295 56.7301 12.9244 58.8004 12.9049C58.9176 12.9049 59.0251 12.9049 59.1227 12.9049C61.0758 12.9049 62.902 13.0709 64.6012 13.403C66.3786 13.7545 67.9215 14.36 69.2301 15.2194C70.4215 15.9811 71.3688 16.9381 72.0719 18.0905C72.7946 19.2428 73.2243 20.5416 73.361 21.9869C73.4001 22.3385 73.4196 22.7096 73.4196 23.1002C73.4196 24.2135 73.2536 25.3951 72.9215 26.6451C72.4919 28.3053 71.7497 29.9948 70.695 31.7135C70.4997 32.0651 70.1969 32.5045 69.7868 33.0319C69.3766 33.5592 68.9274 34.1256 68.4391 34.7311C67.9704 35.317 67.4528 35.903 66.8864 36.4889C66.3395 37.0553 65.8024 37.5631 65.2751 38.0123C65.7633 39.1647 66.2809 40.3854 66.8278 41.6744C67.3942 42.944 67.9411 44.1744 68.4684 45.3658C69.0153 46.5377 69.5329 47.6217 70.0211 48.6178C70.5094 49.5944 70.8903 50.3561 71.1637 50.903L70.7536 51.3424L67.2672 49.4088L67.0915 52.3971L65.8903 51.8698L64.8063 52.6022L57.5407 41.3815L53.7614 42.8756L53.4684 51.8698L52.5016 51.7526L50.5094 48.6178L48.9567 52.6608L47.8727 52.2213C47.8336 51.0299 47.7653 49.3209 47.6676 47.0944C47.57 44.8678 47.4821 42.4459 47.404 39.8287C47.3258 37.2116 47.2868 34.5553 47.2868 31.86C47.2868 29.1647 47.3649 26.7135 47.5211 24.5065L47.6969 22.1627L45.7926 20.7858L48.9567 17.9147L45.529 16.2741ZM54.1715 35.1412C55.6169 34.5748 57.1012 33.8131 58.6247 32.8561C60.1481 31.8991 61.4665 30.8541 62.5797 29.7213C63.693 28.569 64.5036 27.3776 65.0114 26.1471C65.2458 25.6002 65.3629 25.0533 65.3629 24.5065C65.3629 23.8619 65.1969 23.2272 64.8649 22.6022C64.5133 21.9576 63.7614 21.5475 62.609 21.3717C61.6715 21.2155 60.7047 21.1373 59.7086 21.1373C59.4938 21.1373 59.2692 21.1373 59.0348 21.1373C57.5895 21.2155 56.0075 21.401 54.2887 21.694L54.1715 35.1412Z"/>
<path d="M82.5544 17.6217L83.3747 15.6881L82.9645 14.8971L100.132 13.7545L100.66 16.0983L96.9391 18.6764L100.484 19.7604L100.015 21.0787L91.2555 21.8698L91.0504 31.0983L99.8102 30.8053L98.8141 33.9401L100.543 34.6432L100.25 36.2545L91.1676 37.1627L91.5485 46.9479L100.601 46.5963L100.015 49.7018L101.627 50.4342L100.953 52.7194L86.8024 53.5397L87.0368 50.4928L83.3747 50.7272L83.7555 22.6608L83.0231 21.4596L85.6012 19.233L82.5544 17.6217Z"/>
<path d="M127.865 15.2194L128.949 14.1354L132.172 16.5963L132.347 13.0514L134.632 12.7584L141.166 27.8756L142.132 27.9928L145.795 13.2272L146.703 13.0514L147.904 16.4791L150.365 13.5787L151.127 14.6041L153.353 13.8424L143.509 51.1959L142.425 51.8112L141.166 49.1158L138.412 51.8112L137.093 50.903L136.39 51.1373L140.052 34.7018L136.859 34.5846L127.865 15.2194Z"/>
<path d="M160.173 38.5104C160.095 37.4362 160.047 36.3619 160.027 35.2877C160.027 34.0963 160.086 32.9049 160.203 31.7135C160.593 27.6315 161.16 24.4283 161.902 22.1041C162.644 19.7799 163.738 18.0026 165.183 16.7721C165.711 16.3229 166.375 15.8737 167.175 15.4244C167.996 14.9557 168.904 14.5553 169.9 14.2233C170.916 13.8717 172 13.6276 173.152 13.4908C173.699 13.4323 174.246 13.403 174.793 13.403L176.638 13.5201L176.521 17.0065L179.451 15.2194L180.711 17.0651L182.703 16.2741C184.187 17.7975 185.32 19.985 186.101 22.8366C186.902 25.6686 187.302 29.1451 187.302 33.2662C187.302 34.6334 187.224 36.1276 187.068 37.7487C186.912 39.3698 186.629 40.9616 186.218 42.5241C185.828 44.067 185.3 45.4928 184.636 46.8014C183.972 48.0905 183.142 49.0963 182.146 49.819C180.74 50.8151 179.324 51.5768 177.898 52.1041C176.492 52.6315 175.115 52.9635 173.767 53.1002C173.142 53.1588 172.517 53.1881 171.892 53.1881C171.209 53.1881 170.554 53.1491 169.929 53.0709C168.738 52.9147 167.654 52.651 166.677 52.2799C165.447 51.8307 164.373 50.9323 163.455 49.5846C162.556 48.2174 161.824 46.5963 161.257 44.7213C160.711 42.8463 160.349 40.776 160.173 38.5104ZM167.322 33.0319C167.263 33.7936 167.244 34.5455 167.263 35.2877C167.263 36.694 167.361 38.0807 167.556 39.4479C167.849 41.5182 168.396 43.1783 169.197 44.4283C169.588 45.0729 170.164 45.5612 170.925 45.8932C171.687 46.2057 172.498 46.3619 173.357 46.3619C174.216 46.3619 175.037 46.2155 175.818 45.9225C176.599 45.61 177.195 45.1315 177.605 44.4869C177.996 43.8424 178.377 42.9147 178.748 41.7037C179.138 40.4733 179.441 39.1256 179.656 37.6608C179.89 36.1764 180.027 34.6334 180.066 33.0319C180.066 32.817 180.066 32.6022 180.066 32.3873C180.066 31.0201 179.949 29.7018 179.715 28.4323C179.461 26.9674 179.031 25.6588 178.425 24.5065C177.84 23.3541 177.039 22.4752 176.023 21.8698C175.379 21.4791 174.627 21.2838 173.767 21.2838C173.728 21.2838 173.679 21.2838 173.621 21.2838C172.703 21.3033 171.912 21.6158 171.248 22.2213C170.095 23.2565 169.187 24.7701 168.523 26.7623C167.879 28.735 167.478 30.8248 167.322 33.0319Z"/>
<path d="M196.847 37.4557C196.847 35.2096 196.857 33.1783 196.877 31.3619C196.896 29.5455 196.955 27.7877 197.052 26.0885C197.15 24.3893 197.277 22.651 197.433 20.8737C197.59 19.0963 197.814 17.1432 198.107 15.0143L200.07 15.8053L202.414 14.0182L204.64 15.3951L205.461 15.1022C205.343 16.2936 205.216 17.8561 205.08 19.7897C204.943 21.7037 204.806 23.7155 204.67 25.8248C204.533 27.9147 204.435 29.9557 204.377 31.9479C204.357 32.8073 204.338 33.5983 204.318 34.3209C204.318 35.2975 204.347 36.1666 204.406 36.9283C204.601 40.6979 205.617 43.0905 207.453 44.1061C208.058 44.4381 208.752 44.6041 209.533 44.6041C211.095 44.6041 212.98 43.9303 215.187 42.5826C215.422 42.0162 215.607 41.2057 215.744 40.151C215.9 39.0768 216.017 37.8756 216.095 36.5475C216.173 35.1998 216.232 33.7643 216.271 32.2408C216.31 30.7174 216.33 29.1842 216.33 27.6412C216.369 25.0436 216.398 22.4752 216.418 19.9362C216.437 17.3776 216.486 15.2389 216.564 13.5201L218.205 13.11L220.226 17.1823L222.863 13.3444L224.269 13.2858C224.23 14.9264 224.181 17.192 224.123 20.0826C224.084 22.9537 224.045 26.1471 224.006 29.6627C223.966 33.1783 223.947 36.8307 223.947 40.6198C223.947 44.3893 223.986 47.9635 224.064 51.3424L222.57 50.8444L220.548 52.6022L218.322 51.1373L216.564 51.9869C216.525 51.7916 216.457 51.528 216.359 51.1959C216.261 50.8444 216.076 50.3073 215.802 49.5846C214.611 50.1119 213.293 50.5709 211.847 50.9616C210.402 51.3326 208.986 51.5866 207.599 51.7233C206.857 51.8014 206.144 51.8405 205.461 51.8405C204.875 51.8405 204.308 51.8112 203.761 51.7526C202.59 51.6354 201.681 51.3326 201.037 50.8444C200.041 50.1217 199.259 49.1256 198.693 47.8561C198.127 46.567 197.707 45.2487 197.433 43.901C197.16 42.5338 196.994 41.2643 196.935 40.0924C196.877 38.901 196.847 38.0221 196.847 37.4557Z"/>
<path d="M251.533 28.5201C251.689 26.4889 252.295 24.6334 253.349 22.9537C254.423 21.2741 255.791 19.8287 257.451 18.6178C259.111 17.3873 260.957 16.3815 262.988 15.6002C265.039 14.819 267.129 14.3112 269.257 14.0768C269.668 14.0182 270.166 13.9791 270.752 13.9596C270.908 13.9596 271.064 13.9694 271.22 13.9889C272.021 14.0084 272.705 14.0377 273.271 14.0768L273.506 14.8385L269.609 17.0065L272.715 18.5006L271.396 19.7604L272.304 21.4596C270.859 21.5768 269.433 21.7721 268.027 22.0455C266.64 22.319 265.39 22.6998 264.277 23.1881C263.183 23.6764 262.256 24.2721 261.494 24.9752C260.732 25.6588 260.273 26.4596 260.117 27.3776C260.078 27.6119 260.058 27.8463 260.058 28.0807C260.058 28.8229 260.322 29.4479 260.849 29.9557C261.533 30.6393 262.353 31.2057 263.31 31.6549C263.798 31.8502 264.297 32.0358 264.804 32.2116C265.332 32.3873 265.849 32.5631 266.357 32.7389C266.845 32.8951 267.304 33.0319 267.734 33.1491C268.183 33.2662 268.564 33.3639 268.877 33.442C270.791 34.0475 272.285 34.8776 273.359 35.9323C274.453 36.9869 275 38.5397 275 40.5905C275 42.7584 274.404 44.6725 273.213 46.3326C272.041 47.9928 270.195 49.4576 267.675 50.7272C266.679 51.2155 265.673 51.6256 264.658 51.9576C263.642 52.2897 262.646 52.5729 261.67 52.8073C260.713 53.0612 259.804 53.2467 258.945 53.3639C258.086 53.4811 257.295 53.5787 256.572 53.6569L257.597 51.7526L254.843 50.9616L256.045 49.1744L255.019 48.0905C255.703 47.9342 256.455 47.7682 257.275 47.5924C258.095 47.3971 258.925 47.1823 259.765 46.9479C260.527 46.7135 261.298 46.4303 262.08 46.0983C262.861 45.7467 263.564 45.3366 264.189 44.8678C264.834 44.3795 265.361 43.8424 265.771 43.2565C266.201 42.6705 266.416 42.0455 266.416 41.3815C266.416 40.5416 266.006 39.8483 265.185 39.3014C264.365 38.7545 263.457 38.3248 262.461 38.0123C261.425 37.6608 260.39 37.3678 259.355 37.1334C258.34 36.8795 257.578 36.6549 257.07 36.4596C255.273 35.7369 253.857 34.7604 252.822 33.5299C251.943 32.4752 251.504 31.0885 251.504 29.3698C251.504 29.0963 251.513 28.8131 251.533 28.5201Z"/>
<path d="M285.043 37.4557C285.043 35.2096 285.052 33.1783 285.072 31.3619C285.091 29.5455 285.15 27.7877 285.248 26.0885C285.345 24.3893 285.472 22.651 285.629 20.8737C285.785 19.0963 286.009 17.1432 286.302 15.0143L288.265 15.8053L290.609 14.0182L292.836 15.3951L293.656 15.1022C293.539 16.2936 293.412 17.8561 293.275 19.7897C293.138 21.7037 293.002 23.7155 292.865 25.8248C292.728 27.9147 292.631 29.9557 292.572 31.9479C292.552 32.8073 292.533 33.5983 292.513 34.3209C292.513 35.2975 292.543 36.1666 292.601 36.9283C292.797 40.6979 293.812 43.0905 295.648 44.1061C296.254 44.4381 296.947 44.6041 297.728 44.6041C299.291 44.6041 301.175 43.9303 303.382 42.5826C303.617 42.0162 303.802 41.2057 303.939 40.151C304.095 39.0768 304.213 37.8756 304.291 36.5475C304.369 35.1998 304.427 33.7643 304.466 32.2408C304.506 30.7174 304.525 29.1842 304.525 27.6412C304.564 25.0436 304.593 22.4752 304.613 19.9362C304.632 17.3776 304.681 15.2389 304.759 13.5201L306.4 13.11L308.422 17.1823L311.058 13.3444L312.465 13.2858C312.425 14.9264 312.377 17.192 312.318 20.0826C312.279 22.9537 312.24 26.1471 312.201 29.6627C312.162 33.1783 312.142 36.8307 312.142 40.6198C312.142 44.3893 312.181 47.9635 312.259 51.3424L310.765 50.8444L308.744 52.6022L306.517 51.1373L304.759 51.9869C304.72 51.7916 304.652 51.528 304.554 51.1959C304.457 50.8444 304.271 50.3073 303.998 49.5846C302.806 50.1119 301.488 50.5709 300.043 50.9616C298.597 51.3326 297.181 51.5866 295.795 51.7233C295.052 51.8014 294.34 51.8405 293.656 51.8405C293.07 51.8405 292.504 51.8112 291.957 51.7526C290.785 51.6354 289.877 51.3326 289.232 50.8444C288.236 50.1217 287.455 49.1256 286.888 47.8561C286.322 46.567 285.902 45.2487 285.629 43.901C285.355 42.5338 285.189 41.2643 285.131 40.0924C285.072 38.901 285.043 38.0221 285.043 37.4557Z"/>
<path d="M321.775 16.2741L321.98 15.1608C324.187 14.4381 326.394 13.8912 328.601 13.5201C330.828 13.1295 332.976 12.9244 335.047 12.9049C335.164 12.9049 335.271 12.9049 335.369 12.9049C337.322 12.9049 339.148 13.0709 340.847 13.403C342.625 13.7545 344.168 14.36 345.476 15.2194C346.668 15.9811 347.615 16.9381 348.318 18.0905C349.041 19.2428 349.47 20.5416 349.607 21.9869C349.646 22.3385 349.666 22.7096 349.666 23.1002C349.666 24.2135 349.5 25.3951 349.168 26.6451C348.738 28.3053 347.996 29.9948 346.941 31.7135C346.746 32.0651 346.443 32.5045 346.033 33.0319C345.623 33.5592 345.173 34.1256 344.685 34.7311C344.216 35.317 343.699 35.903 343.132 36.4889C342.586 37.0553 342.048 37.5631 341.521 38.0123C342.009 39.1647 342.527 40.3854 343.074 41.6744C343.64 42.944 344.187 44.1744 344.715 45.3658C345.261 46.5377 345.779 47.6217 346.267 48.6178C346.756 49.5944 347.136 50.3561 347.41 50.903L347 51.3424L343.513 49.4088L343.338 52.3971L342.136 51.8698L341.052 52.6022L333.787 41.3815L330.007 42.8756L329.715 51.8698L328.748 51.7526L326.756 48.6178L325.203 52.6608L324.119 52.2213C324.08 51.0299 324.011 49.3209 323.914 47.0944C323.816 44.8678 323.728 42.4459 323.65 39.8287C323.572 37.2116 323.533 34.5553 323.533 31.86C323.533 29.1647 323.611 26.7135 323.767 24.5065L323.943 22.1627L322.039 20.7858L325.203 17.9147L321.775 16.2741ZM330.418 35.1412C331.863 34.5748 333.347 33.8131 334.871 32.8561C336.394 31.8991 337.713 30.8541 338.826 29.7213C339.939 28.569 340.75 27.3776 341.257 26.1471C341.492 25.6002 341.609 25.0533 341.609 24.5065C341.609 23.8619 341.443 23.2272 341.111 22.6022C340.759 21.9576 340.007 21.5475 338.855 21.3717C337.918 21.2155 336.951 21.1373 335.955 21.1373C335.74 21.1373 335.515 21.1373 335.281 21.1373C333.836 21.2155 332.254 21.401 330.535 21.694L330.418 35.1412Z"/>
<path d="M358.8 17.6217L359.621 15.6881L359.211 14.8971L376.379 13.7545L376.906 16.0983L373.185 18.6764L376.73 19.7604L376.261 21.0787L367.502 21.8698L367.297 31.0983L376.056 30.8053L375.06 33.9401L376.789 34.6432L376.496 36.2545L367.414 37.1627L367.795 46.9479L376.847 46.5963L376.261 49.7018L377.873 50.4342L377.199 52.7194L363.048 53.5397L363.283 50.4928L359.621 50.7272L360.002 22.6608L359.269 21.4596L361.847 19.233L358.8 17.6217Z"/>
<path d="M403.818 14.7213L404.931 14.5455L407.275 17.1823L409.091 14.7799L410.703 14.9557L413.632 33.8229H414.716L419.931 14.2526L420.605 14.1354L423.125 18.2662L425.82 14.4283L426.113 14.6627L430.273 33.735L431.65 33.6764L435.429 14.7213L436.25 14.6041L437.158 18.5006L440.879 13.8424L441.963 13.9596L435.078 51.694L434.17 51.1959L431.709 52.6608L429.658 50.903L427.578 51.8698L422.597 32.5338H421.513L415.742 52.6022L413.75 53.2467L411.435 49.3502L409.502 53.0123L408.711 52.778L403.818 14.7213Z"/>
<path d="M445.736 51.5768L453.47 14.5455L455.873 15.278L458.07 13.3444L461.381 17.4166L463.256 13.7545L465.336 15.0143L467.269 13.901L474.271 51.8112L472.953 50.903L470.756 52.1627L469.056 49.9948L467.445 51.6354L465.218 43.5201L454.056 44.4283L451.918 52.6022L451.302 52.8366L449.398 50.4342L446.996 52.3385L445.736 51.5768ZM455.55 37.6022L464.134 36.8112L461.146 23.3639L458.627 23.5397L455.55 37.6022Z"/>
<path d="M483.582 15.2194L486.218 13.8424L488.328 16.0397L490.965 15.1608L503.211 37.3971H504.412L504.06 15.3366L505.613 14.4283L508.308 18.1491L510.828 14.3698L511.912 14.5455L511.853 53.0709L511.179 53.4811L509.041 51.2545L506.023 53.3639L504.822 53.1295L492.722 34.0573L491.199 33.8815L490.73 53.2467L489.002 53.0123L486.658 49.819L484.9 53.3639L483.875 52.8366L483.582 15.2194Z"/>
<path d="M521.662 17.4752L521.955 16.4205L545.656 14.7213L544.689 16.2155L546.388 17.9733L543.488 19.819L546.388 21.0787L546.154 22.1041L538.332 22.6608L537.922 52.5143L537.013 52.778L535.05 48.5006L533.673 52.1627L532.209 50.6686L530.48 51.7526L530.187 23.0123L522.922 23.4811L523.215 22.3971L522.189 21.5768L525.558 19.0573L521.662 17.4752Z"/>
<path d="M572.861 17.4752L573.154 16.4205L596.855 14.7213L595.888 16.2155L597.588 17.9733L594.687 19.819L597.588 21.0787L597.353 22.1041L589.531 22.6608L589.121 52.5143L588.213 52.778L586.25 48.5006L584.873 52.1627L583.408 50.6686L581.679 51.7526L581.386 23.0123L574.121 23.4811L574.414 22.3971L573.388 21.5768L576.757 19.0573L572.861 17.4752Z"/>
<path d="M603.705 38.5104C603.627 37.4362 603.578 36.3619 603.558 35.2877C603.558 34.0963 603.617 32.9049 603.734 31.7135C604.125 27.6315 604.691 24.4283 605.433 22.1041C606.175 19.7799 607.269 18.0026 608.715 16.7721C609.242 16.3229 609.906 15.8737 610.707 15.4244C611.527 14.9557 612.435 14.5553 613.431 14.2233C614.447 13.8717 615.531 13.6276 616.683 13.4908C617.23 13.4323 617.777 13.403 618.324 13.403L620.17 13.5201L620.052 17.0065L622.982 15.2194L624.242 17.0651L626.234 16.2741C627.718 17.7975 628.851 19.985 629.632 22.8366C630.433 25.6686 630.834 29.1451 630.834 33.2662C630.834 34.6334 630.756 36.1276 630.599 37.7487C630.443 39.3698 630.16 40.9616 629.75 42.5241C629.359 44.067 628.832 45.4928 628.168 46.8014C627.504 48.0905 626.673 49.0963 625.677 49.819C624.271 50.8151 622.855 51.5768 621.429 52.1041C620.023 52.6315 618.646 52.9635 617.298 53.1002C616.673 53.1588 616.048 53.1881 615.423 53.1881C614.74 53.1881 614.086 53.1491 613.461 53.0709C612.269 52.9147 611.185 52.651 610.209 52.2799C608.978 51.8307 607.904 50.9323 606.986 49.5846C606.088 48.2174 605.355 46.5963 604.789 44.7213C604.242 42.8463 603.881 40.776 603.705 38.5104ZM610.853 33.0319C610.795 33.7936 610.775 34.5455 610.795 35.2877C610.795 36.694 610.892 38.0807 611.088 39.4479C611.381 41.5182 611.927 43.1783 612.728 44.4283C613.119 45.0729 613.695 45.5612 614.457 45.8932C615.218 46.2057 616.029 46.3619 616.888 46.3619C617.748 46.3619 618.568 46.2155 619.349 45.9225C620.131 45.61 620.726 45.1315 621.136 44.4869C621.527 43.8424 621.908 42.9147 622.279 41.7037C622.67 40.4733 622.972 39.1256 623.187 37.6608C623.422 36.1764 623.558 34.6334 623.597 33.0319C623.597 32.817 623.597 32.6022 623.597 32.3873C623.597 31.0201 623.48 29.7018 623.246 28.4323C622.992 26.9674 622.562 25.6588 621.957 24.5065C621.371 23.3541 620.57 22.4752 619.554 21.8698C618.91 21.4791 618.158 21.2838 617.298 21.2838C617.259 21.2838 617.211 21.2838 617.152 21.2838C616.234 21.3033 615.443 21.6158 614.779 22.2213C613.627 23.2565 612.718 24.7701 612.054 26.7623C611.41 28.735 611.009 30.8248 610.853 33.0319Z"/>
<path d="M244.209 103.995C244.209 102.237 244.267 100.508 244.384 98.8092C244.521 97.11 244.765 95.4889 245.117 93.9459C245.468 92.3834 245.996 90.8893 246.699 89.4635C247.402 88.0377 248.34 86.7487 249.511 85.5963C250.39 84.7174 251.504 84.0631 252.851 83.6334C254.218 83.1842 255.625 82.9205 257.07 82.8424C257.422 82.8229 257.773 82.8033 258.125 82.7838C259.179 82.7838 260.185 82.8815 261.142 83.0768C262.431 83.3112 263.427 83.6725 264.131 84.1608C265.205 84.8834 266.142 85.8112 266.943 86.944C267.744 88.0768 268.398 89.3366 268.906 90.7233C269.414 92.0905 269.785 93.5162 270.019 95.0006C270.254 96.485 270.371 97.9108 270.371 99.278C270.371 100.079 270.381 100.86 270.4 101.622C270.4 101.876 270.41 102.13 270.429 102.383C270.429 102.891 270.41 103.409 270.371 103.936C270.332 104.737 270.283 105.508 270.224 106.251C270.166 106.993 270.058 107.745 269.902 108.506C269.629 109.952 269.15 111.397 268.466 112.842C267.783 114.268 266.621 115.899 264.98 117.735C265.625 118.458 266.289 119.19 266.972 119.932C267.675 120.674 268.193 121.202 268.525 121.514L267.734 122.364L265.215 121.28L264.922 123.448L263.603 123.565C263.408 123.37 263.056 122.96 262.548 122.335C262.041 121.71 261.513 121.065 260.966 120.401C260.048 120.674 259.052 120.889 257.978 121.046C257.216 121.163 256.445 121.221 255.664 121.221L254.814 121.192C253.759 121.133 252.715 120.938 251.679 120.606C250.664 120.255 249.716 119.717 248.838 118.995C248.076 118.389 247.402 117.501 246.816 116.329C246.25 115.157 245.771 113.878 245.381 112.491C245.009 111.085 244.716 109.63 244.502 108.126C244.306 106.602 244.209 105.225 244.209 103.995ZM251.298 102.325C251.279 102.676 251.269 103.028 251.269 103.38C251.269 104.083 251.298 104.805 251.357 105.547C251.435 106.641 251.591 107.696 251.826 108.712C252.08 109.727 252.402 110.684 252.793 111.583C253.203 112.462 253.701 113.155 254.287 113.663C254.443 113.819 254.697 113.917 255.048 113.956C255.42 113.995 255.81 114.014 256.22 114.014C256.67 114.014 257.148 113.995 257.656 113.956L256.162 110.557L257.715 111.319L258.798 109.532L259.736 110.469C260.166 110.899 260.654 111.368 261.201 111.876C261.884 110.84 262.382 109.893 262.695 109.034C263.007 108.155 263.232 107.315 263.369 106.514C263.486 105.714 263.554 105.001 263.574 104.376C263.593 103.731 263.603 103.165 263.603 102.676C263.603 101.954 263.584 101.143 263.545 100.245C263.506 99.3463 263.418 98.4381 263.281 97.5201C263.164 96.6022 262.988 95.733 262.754 94.9127C262.519 94.0924 262.197 93.4088 261.787 92.8619C261.338 92.3346 260.742 91.9049 260 91.5729C259.277 91.2213 258.506 91.0358 257.685 91.0162C257.646 91.0162 257.597 91.0162 257.539 91.0162C256.757 91.0162 256.006 91.1725 255.283 91.485C254.502 91.817 253.896 92.3737 253.466 93.1549C252.861 94.2291 252.363 95.5182 251.972 97.0221C251.601 98.526 251.377 100.294 251.298 102.325Z"/>
<path d="M279.593 106.456C279.593 104.21 279.603 102.178 279.623 100.362C279.642 98.5455 279.701 96.7877 279.798 95.0885C279.896 93.3893 280.023 91.651 280.179 89.8737C280.336 88.0963 280.56 86.1432 280.853 84.0143L282.816 84.8053L285.16 83.0182L287.386 84.3951L288.207 84.1022C288.09 85.2936 287.963 86.8561 287.826 88.7897C287.689 90.7037 287.552 92.7155 287.416 94.8248C287.279 96.9147 287.181 98.9557 287.123 100.948C287.103 101.807 287.084 102.598 287.064 103.321C287.064 104.297 287.093 105.167 287.152 105.928C287.347 109.698 288.363 112.09 290.199 113.106C290.804 113.438 291.498 113.604 292.279 113.604C293.841 113.604 295.726 112.93 297.933 111.583C298.168 111.016 298.353 110.206 298.49 109.151C298.646 108.077 298.763 106.876 298.841 105.547C298.92 104.2 298.978 102.764 299.017 101.241C299.056 99.7174 299.076 98.1842 299.076 96.6412C299.115 94.0436 299.144 91.4752 299.164 88.9362C299.183 86.3776 299.232 84.2389 299.31 82.5201L300.951 82.11L302.972 86.1823L305.609 82.3444L307.015 82.2858C306.976 83.9264 306.927 86.192 306.869 89.0826C306.83 91.9537 306.791 95.1471 306.752 98.6627C306.713 102.178 306.693 105.831 306.693 109.62C306.693 113.389 306.732 116.964 306.81 120.342L305.316 119.844L303.295 121.602L301.068 120.137L299.31 120.987C299.271 120.792 299.203 120.528 299.105 120.196C299.007 119.844 298.822 119.307 298.548 118.585C297.357 119.112 296.039 119.571 294.593 119.962C293.148 120.333 291.732 120.587 290.345 120.723C289.603 120.801 288.89 120.84 288.207 120.84C287.621 120.84 287.054 120.811 286.507 120.753C285.336 120.635 284.427 120.333 283.783 119.844C282.787 119.122 282.006 118.126 281.439 116.856C280.873 115.567 280.453 114.249 280.179 112.901C279.906 111.534 279.74 110.264 279.681 109.092C279.623 107.901 279.593 107.022 279.593 106.456Z"/>
<path d="M317.41 121.046V83.7213L318.728 83.2526L320.72 87.9401L323.24 83.4283L325.027 84.3951L326.726 83.7799L325.701 121.719L324.968 121.954L322.449 118.35L320.72 121.514L319.168 120.928L317.41 121.046Z"/>
<path d="M336.564 86.4752L336.857 85.4205L360.558 83.7213L359.591 85.2155L361.291 86.9733L358.39 88.819L361.291 90.0787L361.056 91.1041L353.234 91.6608L352.824 121.514L351.916 121.778L349.953 117.501L348.576 121.163L347.111 119.669L345.382 120.753L345.09 92.0123L337.824 92.4811L338.117 91.3971L337.091 90.5768L340.461 88.0573L336.564 86.4752Z"/>
<path d="M372.271 77.0123L373.707 75.7526C373.629 75.6354 373.531 75.4987 373.414 75.3424C373.336 75.2252 373.218 75.0983 373.062 74.9616C372.925 74.8053 372.818 74.6491 372.74 74.4928C375.064 73.8092 377.379 73.3698 379.683 73.1744C381.988 72.9791 384.361 73.0377 386.802 73.3502C388.756 73.5846 390.494 74.2096 392.017 75.2252C393.541 76.2213 394.781 77.442 395.738 78.8873C396.695 80.3131 397.349 81.8854 397.701 83.6041C398.072 85.3229 398.052 87.0416 397.642 88.7604C397.33 90.0494 396.744 91.2018 395.884 92.2174C395.025 93.233 393.961 94.1705 392.691 95.0299C391.441 95.8893 390.025 96.6803 388.443 97.403C386.861 98.1256 385.191 98.8092 383.433 99.4537C383.199 100.137 382.994 100.801 382.818 101.446C382.662 102.071 382.525 102.686 382.408 103.292C382.291 103.858 382.213 104.385 382.173 104.874C382.134 105.342 382.076 105.733 381.998 106.046L381.09 106.837L378.57 104.551L377.603 107.598L376.841 107.481C376.763 106.993 376.656 106.348 376.519 105.547C376.402 104.727 376.285 103.848 376.168 102.911C376.05 101.954 375.943 100.977 375.845 99.9811C375.748 98.985 375.699 98.0475 375.699 97.1686C376.422 96.778 377.281 96.3385 378.277 95.8502C379.273 95.3619 380.289 94.8444 381.324 94.2975C382.73 93.4967 383.97 92.6373 385.045 91.7194C386.119 90.8014 386.802 89.8737 387.095 88.9362C387.447 87.7838 387.506 86.7194 387.271 85.7428C387.037 84.7662 386.617 83.9166 386.011 83.194C385.406 82.4713 384.654 81.8854 383.756 81.4362C382.857 80.9674 381.929 80.694 380.972 80.6158C379.82 80.5377 378.541 80.4987 377.134 80.4987C375.728 80.4987 374.263 80.6354 372.74 80.9088L375.084 78.4479L372.271 77.0123ZM374.732 121.661C374.322 121.368 374.039 121.016 373.882 120.606C373.726 120.176 373.726 119.717 373.882 119.229C374.039 118.721 374.361 118.204 374.849 117.676C375.338 117.13 376.021 116.592 376.9 116.065C377.173 115.909 377.584 115.782 378.131 115.684C378.697 115.587 379.293 115.518 379.918 115.479C380.543 115.44 381.109 115.44 381.617 115.479C382.144 115.518 382.486 115.596 382.642 115.714C382.838 115.831 383.033 116.094 383.228 116.505C383.443 116.895 383.56 117.344 383.58 117.852C383.599 118.34 383.482 118.858 383.228 119.405C382.994 119.932 382.525 120.44 381.822 120.928C381.373 121.241 380.777 121.465 380.035 121.602C379.293 121.758 378.56 121.866 377.838 121.924C377.134 121.983 376.48 121.983 375.875 121.924C375.269 121.866 374.888 121.778 374.732 121.661Z"/>
</mask>
<g filter="url(#filter0_i_1_4)">
<path d="M3.34732 52.6608L12.8395 5.66858L14.0407 4.99475L16.3844 7.66077L20.2809 4.29163L24.236 9.15491L26.7555 4.81897H27.1071L37.3317 51.6354L36.2477 52.1041L33.1715 48.0319L32.0876 51.5182L29.8903 50.1412L28.6891 51.3424L26.404 44.3112L12.4294 44.4283L10.6715 52.3971L9.1188 51.5182L8.09341 52.4557L6.95084 49.0573L4.07974 53.1295L3.34732 52.6608ZM14.1579 37.2213L25.7301 36.4596L21.1891 17.2408L18.7868 16.8307L14.1579 37.2213Z" fill="#F5F5F5"/>
<path d="M45.529 16.2741L45.734 15.1608C47.9411 14.4381 50.1481 13.8912 52.3551 13.5201C54.5817 13.1295 56.7301 12.9244 58.8004 12.9049C58.9176 12.9049 59.0251 12.9049 59.1227 12.9049C61.0758 12.9049 62.902 13.0709 64.6012 13.403C66.3786 13.7545 67.9215 14.36 69.2301 15.2194C70.4215 15.9811 71.3688 16.9381 72.0719 18.0905C72.7946 19.2428 73.2243 20.5416 73.361 21.9869C73.4001 22.3385 73.4196 22.7096 73.4196 23.1002C73.4196 24.2135 73.2536 25.3951 72.9215 26.6451C72.4919 28.3053 71.7497 29.9948 70.695 31.7135C70.4997 32.0651 70.1969 32.5045 69.7868 33.0319C69.3766 33.5592 68.9274 34.1256 68.4391 34.7311C67.9704 35.317 67.4528 35.903 66.8864 36.4889C66.3395 37.0553 65.8024 37.5631 65.2751 38.0123C65.7633 39.1647 66.2809 40.3854 66.8278 41.6744C67.3942 42.944 67.9411 44.1744 68.4684 45.3658C69.0153 46.5377 69.5329 47.6217 70.0211 48.6178C70.5094 49.5944 70.8903 50.3561 71.1637 50.903L70.7536 51.3424L67.2672 49.4088L67.0915 52.3971L65.8903 51.8698L64.8063 52.6022L57.5407 41.3815L53.7614 42.8756L53.4684 51.8698L52.5016 51.7526L50.5094 48.6178L48.9567 52.6608L47.8727 52.2213C47.8336 51.0299 47.7653 49.3209 47.6676 47.0944C47.57 44.8678 47.4821 42.4459 47.404 39.8287C47.3258 37.2116 47.2868 34.5553 47.2868 31.86C47.2868 29.1647 47.3649 26.7135 47.5211 24.5065L47.6969 22.1627L45.7926 20.7858L48.9567 17.9147L45.529 16.2741ZM54.1715 35.1412C55.6169 34.5748 57.1012 33.8131 58.6247 32.8561C60.1481 31.8991 61.4665 30.8541 62.5797 29.7213C63.693 28.569 64.5036 27.3776 65.0114 26.1471C65.2458 25.6002 65.3629 25.0533 65.3629 24.5065C65.3629 23.8619 65.1969 23.2272 64.8649 22.6022C64.5133 21.9576 63.7614 21.5475 62.609 21.3717C61.6715 21.2155 60.7047 21.1373 59.7086 21.1373C59.4938 21.1373 59.2692 21.1373 59.0348 21.1373C57.5895 21.2155 56.0075 21.401 54.2887 21.694L54.1715 35.1412Z" fill="#F5F5F5"/>
<path d="M82.5544 17.6217L83.3747 15.6881L82.9645 14.8971L100.132 13.7545L100.66 16.0983L96.9391 18.6764L100.484 19.7604L100.015 21.0787L91.2555 21.8698L91.0504 31.0983L99.8102 30.8053L98.8141 33.9401L100.543 34.6432L100.25 36.2545L91.1676 37.1627L91.5485 46.9479L100.601 46.5963L100.015 49.7018L101.627 50.4342L100.953 52.7194L86.8024 53.5397L87.0368 50.4928L83.3747 50.7272L83.7555 22.6608L83.0231 21.4596L85.6012 19.233L82.5544 17.6217Z" fill="#F5F5F5"/>
<path d="M127.865 15.2194L128.949 14.1354L132.172 16.5963L132.347 13.0514L134.632 12.7584L141.166 27.8756L142.132 27.9928L145.795 13.2272L146.703 13.0514L147.904 16.4791L150.365 13.5787L151.127 14.6041L153.353 13.8424L143.509 51.1959L142.425 51.8112L141.166 49.1158L138.412 51.8112L137.093 50.903L136.39 51.1373L140.052 34.7018L136.859 34.5846L127.865 15.2194Z" fill="#F5F5F5"/>
<path d="M160.173 38.5104C160.095 37.4362 160.047 36.3619 160.027 35.2877C160.027 34.0963 160.086 32.9049 160.203 31.7135C160.593 27.6315 161.16 24.4283 161.902 22.1041C162.644 19.7799 163.738 18.0026 165.183 16.7721C165.711 16.3229 166.375 15.8737 167.175 15.4244C167.996 14.9557 168.904 14.5553 169.9 14.2233C170.916 13.8717 172 13.6276 173.152 13.4908C173.699 13.4323 174.246 13.403 174.793 13.403L176.638 13.5201L176.521 17.0065L179.451 15.2194L180.711 17.0651L182.703 16.2741C184.187 17.7975 185.32 19.985 186.101 22.8366C186.902 25.6686 187.302 29.1451 187.302 33.2662C187.302 34.6334 187.224 36.1276 187.068 37.7487C186.912 39.3698 186.629 40.9616 186.218 42.5241C185.828 44.067 185.3 45.4928 184.636 46.8014C183.972 48.0905 183.142 49.0963 182.146 49.819C180.74 50.8151 179.324 51.5768 177.898 52.1041C176.492 52.6315 175.115 52.9635 173.767 53.1002C173.142 53.1588 172.517 53.1881 171.892 53.1881C171.209 53.1881 170.554 53.1491 169.929 53.0709C168.738 52.9147 167.654 52.651 166.677 52.2799C165.447 51.8307 164.373 50.9323 163.455 49.5846C162.556 48.2174 161.824 46.5963 161.257 44.7213C160.711 42.8463 160.349 40.776 160.173 38.5104ZM167.322 33.0319C167.263 33.7936 167.244 34.5455 167.263 35.2877C167.263 36.694 167.361 38.0807 167.556 39.4479C167.849 41.5182 168.396 43.1783 169.197 44.4283C169.588 45.0729 170.164 45.5612 170.925 45.8932C171.687 46.2057 172.498 46.3619 173.357 46.3619C174.216 46.3619 175.037 46.2155 175.818 45.9225C176.599 45.61 177.195 45.1315 177.605 44.4869C177.996 43.8424 178.377 42.9147 178.748 41.7037C179.138 40.4733 179.441 39.1256 179.656 37.6608C179.89 36.1764 180.027 34.6334 180.066 33.0319C180.066 32.817 180.066 32.6022 180.066 32.3873C180.066 31.0201 179.949 29.7018 179.715 28.4323C179.461 26.9674 179.031 25.6588 178.425 24.5065C177.84 23.3541 177.039 22.4752 176.023 21.8698C175.379 21.4791 174.627 21.2838 173.767 21.2838C173.728 21.2838 173.679 21.2838 173.621 21.2838C172.703 21.3033 171.912 21.6158 171.248 22.2213C170.095 23.2565 169.187 24.7701 168.523 26.7623C167.879 28.735 167.478 30.8248 167.322 33.0319Z" fill="#F5F5F5"/>
<path d="M196.847 37.4557C196.847 35.2096 196.857 33.1783 196.877 31.3619C196.896 29.5455 196.955 27.7877 197.052 26.0885C197.15 24.3893 197.277 22.651 197.433 20.8737C197.59 19.0963 197.814 17.1432 198.107 15.0143L200.07 15.8053L202.414 14.0182L204.64 15.3951L205.461 15.1022C205.343 16.2936 205.216 17.8561 205.08 19.7897C204.943 21.7037 204.806 23.7155 204.67 25.8248C204.533 27.9147 204.435 29.9557 204.377 31.9479C204.357 32.8073 204.338 33.5983 204.318 34.3209C204.318 35.2975 204.347 36.1666 204.406 36.9283C204.601 40.6979 205.617 43.0905 207.453 44.1061C208.058 44.4381 208.752 44.6041 209.533 44.6041C211.095 44.6041 212.98 43.9303 215.187 42.5826C215.422 42.0162 215.607 41.2057 215.744 40.151C215.9 39.0768 216.017 37.8756 216.095 36.5475C216.173 35.1998 216.232 33.7643 216.271 32.2408C216.31 30.7174 216.33 29.1842 216.33 27.6412C216.369 25.0436 216.398 22.4752 216.418 19.9362C216.437 17.3776 216.486 15.2389 216.564 13.5201L218.205 13.11L220.226 17.1823L222.863 13.3444L224.269 13.2858C224.23 14.9264 224.181 17.192 224.123 20.0826C224.084 22.9537 224.045 26.1471 224.006 29.6627C223.966 33.1783 223.947 36.8307 223.947 40.6198C223.947 44.3893 223.986 47.9635 224.064 51.3424L222.57 50.8444L220.548 52.6022L218.322 51.1373L216.564 51.9869C216.525 51.7916 216.457 51.528 216.359 51.1959C216.261 50.8444 216.076 50.3073 215.802 49.5846C214.611 50.1119 213.293 50.5709 211.847 50.9616C210.402 51.3326 208.986 51.5866 207.599 51.7233C206.857 51.8014 206.144 51.8405 205.461 51.8405C204.875 51.8405 204.308 51.8112 203.761 51.7526C202.59 51.6354 201.681 51.3326 201.037 50.8444C200.041 50.1217 199.259 49.1256 198.693 47.8561C198.127 46.567 197.707 45.2487 197.433 43.901C197.16 42.5338 196.994 41.2643 196.935 40.0924C196.877 38.901 196.847 38.0221 196.847 37.4557Z" fill="#F5F5F5"/>
<path d="M251.533 28.5201C251.689 26.4889 252.295 24.6334 253.349 22.9537C254.423 21.2741 255.791 19.8287 257.451 18.6178C259.111 17.3873 260.957 16.3815 262.988 15.6002C265.039 14.819 267.129 14.3112 269.257 14.0768C269.668 14.0182 270.166 13.9791 270.752 13.9596C270.908 13.9596 271.064 13.9694 271.22 13.9889C272.021 14.0084 272.705 14.0377 273.271 14.0768L273.506 14.8385L269.609 17.0065L272.715 18.5006L271.396 19.7604L272.304 21.4596C270.859 21.5768 269.433 21.7721 268.027 22.0455C266.64 22.319 265.39 22.6998 264.277 23.1881C263.183 23.6764 262.256 24.2721 261.494 24.9752C260.732 25.6588 260.273 26.4596 260.117 27.3776C260.078 27.6119 260.058 27.8463 260.058 28.0807C260.058 28.8229 260.322 29.4479 260.849 29.9557C261.533 30.6393 262.353 31.2057 263.31 31.6549C263.798 31.8502 264.297 32.0358 264.804 32.2116C265.332 32.3873 265.849 32.5631 266.357 32.7389C266.845 32.8951 267.304 33.0319 267.734 33.1491C268.183 33.2662 268.564 33.3639 268.877 33.442C270.791 34.0475 272.285 34.8776 273.359 35.9323C274.453 36.9869 275 38.5397 275 40.5905C275 42.7584 274.404 44.6725 273.213 46.3326C272.041 47.9928 270.195 49.4576 267.675 50.7272C266.679 51.2155 265.673 51.6256 264.658 51.9576C263.642 52.2897 262.646 52.5729 261.67 52.8073C260.713 53.0612 259.804 53.2467 258.945 53.3639C258.086 53.4811 257.295 53.5787 256.572 53.6569L257.597 51.7526L254.843 50.9616L256.045 49.1744L255.019 48.0905C255.703 47.9342 256.455 47.7682 257.275 47.5924C258.095 47.3971 258.925 47.1823 259.765 46.9479C260.527 46.7135 261.298 46.4303 262.08 46.0983C262.861 45.7467 263.564 45.3366 264.189 44.8678C264.834 44.3795 265.361 43.8424 265.771 43.2565C266.201 42.6705 266.416 42.0455 266.416 41.3815C266.416 40.5416 266.006 39.8483 265.185 39.3014C264.365 38.7545 263.457 38.3248 262.461 38.0123C261.425 37.6608 260.39 37.3678 259.355 37.1334C258.34 36.8795 257.578 36.6549 257.07 36.4596C255.273 35.7369 253.857 34.7604 252.822 33.5299C251.943 32.4752 251.504 31.0885 251.504 29.3698C251.504 29.0963 251.513 28.8131 251.533 28.5201Z" fill="#F5F5F5"/>
<path d="M285.043 37.4557C285.043 35.2096 285.052 33.1783 285.072 31.3619C285.091 29.5455 285.15 27.7877 285.248 26.0885C285.345 24.3893 285.472 22.651 285.629 20.8737C285.785 19.0963 286.009 17.1432 286.302 15.0143L288.265 15.8053L290.609 14.0182L292.836 15.3951L293.656 15.1022C293.539 16.2936 293.412 17.8561 293.275 19.7897C293.138 21.7037 293.002 23.7155 292.865 25.8248C292.728 27.9147 292.631 29.9557 292.572 31.9479C292.552 32.8073 292.533 33.5983 292.513 34.3209C292.513 35.2975 292.543 36.1666 292.601 36.9283C292.797 40.6979 293.812 43.0905 295.648 44.1061C296.254 44.4381 296.947 44.6041 297.728 44.6041C299.291 44.6041 301.175 43.9303 303.382 42.5826C303.617 42.0162 303.802 41.2057 303.939 40.151C304.095 39.0768 304.213 37.8756 304.291 36.5475C304.369 35.1998 304.427 33.7643 304.466 32.2408C304.506 30.7174 304.525 29.1842 304.525 27.6412C304.564 25.0436 304.593 22.4752 304.613 19.9362C304.632 17.3776 304.681 15.2389 304.759 13.5201L306.4 13.11L308.422 17.1823L311.058 13.3444L312.465 13.2858C312.425 14.9264 312.377 17.192 312.318 20.0826C312.279 22.9537 312.24 26.1471 312.201 29.6627C312.162 33.1783 312.142 36.8307 312.142 40.6198C312.142 44.3893 312.181 47.9635 312.259 51.3424L310.765 50.8444L308.744 52.6022L306.517 51.1373L304.759 51.9869C304.72 51.7916 304.652 51.528 304.554 51.1959C304.457 50.8444 304.271 50.3073 303.998 49.5846C302.806 50.1119 301.488 50.5709 300.043 50.9616C298.597 51.3326 297.181 51.5866 295.795 51.7233C295.052 51.8014 294.34 51.8405 293.656 51.8405C293.07 51.8405 292.504 51.8112 291.957 51.7526C290.785 51.6354 289.877 51.3326 289.232 50.8444C288.236 50.1217 287.455 49.1256 286.888 47.8561C286.322 46.567 285.902 45.2487 285.629 43.901C285.355 42.5338 285.189 41.2643 285.131 40.0924C285.072 38.901 285.043 38.0221 285.043 37.4557Z" fill="#F5F5F5"/>
<path d="M321.775 16.2741L321.98 15.1608C324.187 14.4381 326.394 13.8912 328.601 13.5201C330.828 13.1295 332.976 12.9244 335.047 12.9049C335.164 12.9049 335.271 12.9049 335.369 12.9049C337.322 12.9049 339.148 13.0709 340.847 13.403C342.625 13.7545 344.168 14.36 345.476 15.2194C346.668 15.9811 347.615 16.9381 348.318 18.0905C349.041 19.2428 349.47 20.5416 349.607 21.9869C349.646 22.3385 349.666 22.7096 349.666 23.1002C349.666 24.2135 349.5 25.3951 349.168 26.6451C348.738 28.3053 347.996 29.9948 346.941 31.7135C346.746 32.0651 346.443 32.5045 346.033 33.0319C345.623 33.5592 345.173 34.1256 344.685 34.7311C344.216 35.317 343.699 35.903 343.132 36.4889C342.586 37.0553 342.048 37.5631 341.521 38.0123C342.009 39.1647 342.527 40.3854 343.074 41.6744C343.64 42.944 344.187 44.1744 344.715 45.3658C345.261 46.5377 345.779 47.6217 346.267 48.6178C346.756 49.5944 347.136 50.3561 347.41 50.903L347 51.3424L343.513 49.4088L343.338 52.3971L342.136 51.8698L341.052 52.6022L333.787 41.3815L330.007 42.8756L329.715 51.8698L328.748 51.7526L326.756 48.6178L325.203 52.6608L324.119 52.2213C324.08 51.0299 324.011 49.3209 323.914 47.0944C323.816 44.8678 323.728 42.4459 323.65 39.8287C323.572 37.2116 323.533 34.5553 323.533 31.86C323.533 29.1647 323.611 26.7135 323.767 24.5065L323.943 22.1627L322.039 20.7858L325.203 17.9147L321.775 16.2741ZM330.418 35.1412C331.863 34.5748 333.347 33.8131 334.871 32.8561C336.394 31.8991 337.713 30.8541 338.826 29.7213C339.939 28.569 340.75 27.3776 341.257 26.1471C341.492 25.6002 341.609 25.0533 341.609 24.5065C341.609 23.8619 341.443 23.2272 341.111 22.6022C340.759 21.9576 340.007 21.5475 338.855 21.3717C337.918 21.2155 336.951 21.1373 335.955 21.1373C335.74 21.1373 335.515 21.1373 335.281 21.1373C333.836 21.2155 332.254 21.401 330.535 21.694L330.418 35.1412Z" fill="#F5F5F5"/>
<path d="M358.8 17.6217L359.621 15.6881L359.211 14.8971L376.379 13.7545L376.906 16.0983L373.185 18.6764L376.73 19.7604L376.261 21.0787L367.502 21.8698L367.297 31.0983L376.056 30.8053L375.06 33.9401L376.789 34.6432L376.496 36.2545L367.414 37.1627L367.795 46.9479L376.847 46.5963L376.261 49.7018L377.873 50.4342L377.199 52.7194L363.048 53.5397L363.283 50.4928L359.621 50.7272L360.002 22.6608L359.269 21.4596L361.847 19.233L358.8 17.6217Z" fill="#F5F5F5"/>
<path d="M403.818 14.7213L404.931 14.5455L407.275 17.1823L409.091 14.7799L410.703 14.9557L413.632 33.8229H414.716L419.931 14.2526L420.605 14.1354L423.125 18.2662L425.82 14.4283L426.113 14.6627L430.273 33.735L431.65 33.6764L435.429 14.7213L436.25 14.6041L437.158 18.5006L440.879 13.8424L441.963 13.9596L435.078 51.694L434.17 51.1959L431.709 52.6608L429.658 50.903L427.578 51.8698L422.597 32.5338H421.513L415.742 52.6022L413.75 53.2467L411.435 49.3502L409.502 53.0123L408.711 52.778L403.818 14.7213Z" fill="#F5F5F5"/>
<path d="M445.736 51.5768L453.47 14.5455L455.873 15.278L458.07 13.3444L461.381 17.4166L463.256 13.7545L465.336 15.0143L467.269 13.901L474.271 51.8112L472.953 50.903L470.756 52.1627L469.056 49.9948L467.445 51.6354L465.218 43.5201L454.056 44.4283L451.918 52.6022L451.302 52.8366L449.398 50.4342L446.996 52.3385L445.736 51.5768ZM455.55 37.6022L464.134 36.8112L461.146 23.3639L458.627 23.5397L455.55 37.6022Z" fill="#F5F5F5"/>
<path d="M483.582 15.2194L486.218 13.8424L488.328 16.0397L490.965 15.1608L503.211 37.3971H504.412L504.06 15.3366L505.613 14.4283L508.308 18.1491L510.828 14.3698L511.912 14.5455L511.853 53.0709L511.179 53.4811L509.041 51.2545L506.023 53.3639L504.822 53.1295L492.722 34.0573L491.199 33.8815L490.73 53.2467L489.002 53.0123L486.658 49.819L484.9 53.3639L483.875 52.8366L483.582 15.2194Z" fill="#F5F5F5"/>
<path d="M521.662 17.4752L521.955 16.4205L545.656 14.7213L544.689 16.2155L546.388 17.9733L543.488 19.819L546.388 21.0787L546.154 22.1041L538.332 22.6608L537.922 52.5143L537.013 52.778L535.05 48.5006L533.673 52.1627L532.209 50.6686L530.48 51.7526L530.187 23.0123L522.922 23.4811L523.215 22.3971L522.189 21.5768L525.558 19.0573L521.662 17.4752Z" fill="#F5F5F5"/>
<path d="M572.861 17.4752L573.154 16.4205L596.855 14.7213L595.888 16.2155L597.588 17.9733L594.687 19.819L597.588 21.0787L597.353 22.1041L589.531 22.6608L589.121 52.5143L588.213 52.778L586.25 48.5006L584.873 52.1627L583.408 50.6686L581.679 51.7526L581.386 23.0123L574.121 23.4811L574.414 22.3971L573.388 21.5768L576.757 19.0573L572.861 17.4752Z" fill="#F5F5F5"/>
<path d="M603.705 38.5104C603.627 37.4362 603.578 36.3619 603.558 35.2877C603.558 34.0963 603.617 32.9049 603.734 31.7135C604.125 27.6315 604.691 24.4283 605.433 22.1041C606.175 19.7799 607.269 18.0026 608.715 16.7721C609.242 16.3229 609.906 15.8737 610.707 15.4244C611.527 14.9557 612.435 14.5553 613.431 14.2233C614.447 13.8717 615.531 13.6276 616.683 13.4908C617.23 13.4323 617.777 13.403 618.324 13.403L620.17 13.5201L620.052 17.0065L622.982 15.2194L624.242 17.0651L626.234 16.2741C627.718 17.7975 628.851 19.985 629.632 22.8366C630.433 25.6686 630.834 29.1451 630.834 33.2662C630.834 34.6334 630.756 36.1276 630.599 37.7487C630.443 39.3698 630.16 40.9616 629.75 42.5241C629.359 44.067 628.832 45.4928 628.168 46.8014C627.504 48.0905 626.673 49.0963 625.677 49.819C624.271 50.8151 622.855 51.5768 621.429 52.1041C620.023 52.6315 618.646 52.9635 617.298 53.1002C616.673 53.1588 616.048 53.1881 615.423 53.1881C614.74 53.1881 614.086 53.1491 613.461 53.0709C612.269 52.9147 611.185 52.651 610.209 52.2799C608.978 51.8307 607.904 50.9323 606.986 49.5846C606.088 48.2174 605.355 46.5963 604.789 44.7213C604.242 42.8463 603.881 40.776 603.705 38.5104ZM610.853 33.0319C610.795 33.7936 610.775 34.5455 610.795 35.2877C610.795 36.694 610.892 38.0807 611.088 39.4479C611.381 41.5182 611.927 43.1783 612.728 44.4283C613.119 45.0729 613.695 45.5612 614.457 45.8932C615.218 46.2057 616.029 46.3619 616.888 46.3619C617.748 46.3619 618.568 46.2155 619.349 45.9225C620.131 45.61 620.726 45.1315 621.136 44.4869C621.527 43.8424 621.908 42.9147 622.279 41.7037C622.67 40.4733 622.972 39.1256 623.187 37.6608C623.422 36.1764 623.558 34.6334 623.597 33.0319C623.597 32.817 623.597 32.6022 623.597 32.3873C623.597 31.0201 623.48 29.7018 623.246 28.4323C622.992 26.9674 622.562 25.6588 621.957 24.5065C621.371 23.3541 620.57 22.4752 619.554 21.8698C618.91 21.4791 618.158 21.2838 617.298 21.2838C617.259 21.2838 617.211 21.2838 617.152 21.2838C616.234 21.3033 615.443 21.6158 614.779 22.2213C613.627 23.2565 612.718 24.7701 612.054 26.7623C611.41 28.735 611.009 30.8248 610.853 33.0319Z" fill="#F5F5F5"/>
<path d="M244.209 103.995C244.209 102.237 244.267 100.508 244.384 98.8092C244.521 97.11 244.765 95.4889 245.117 93.9459C245.468 92.3834 245.996 90.8893 246.699 89.4635C247.402 88.0377 248.34 86.7487 249.511 85.5963C250.39 84.7174 251.504 84.0631 252.851 83.6334C254.218 83.1842 255.625 82.9205 257.07 82.8424C257.422 82.8229 257.773 82.8033 258.125 82.7838C259.179 82.7838 260.185 82.8815 261.142 83.0768C262.431 83.3112 263.427 83.6725 264.131 84.1608C265.205 84.8834 266.142 85.8112 266.943 86.944C267.744 88.0768 268.398 89.3366 268.906 90.7233C269.414 92.0905 269.785 93.5162 270.019 95.0006C270.254 96.485 270.371 97.9108 270.371 99.278C270.371 100.079 270.381 100.86 270.4 101.622C270.4 101.876 270.41 102.13 270.429 102.383C270.429 102.891 270.41 103.409 270.371 103.936C270.332 104.737 270.283 105.508 270.224 106.251C270.166 106.993 270.058 107.745 269.902 108.506C269.629 109.952 269.15 111.397 268.466 112.842C267.783 114.268 266.621 115.899 264.98 117.735C265.625 118.458 266.289 119.19 266.972 119.932C267.675 120.674 268.193 121.202 268.525 121.514L267.734 122.364L265.215 121.28L264.922 123.448L263.603 123.565C263.408 123.37 263.056 122.96 262.548 122.335C262.041 121.71 261.513 121.065 260.966 120.401C260.048 120.674 259.052 120.889 257.978 121.046C257.216 121.163 256.445 121.221 255.664 121.221L254.814 121.192C253.759 121.133 252.715 120.938 251.679 120.606C250.664 120.255 249.716 119.717 248.838 118.995C248.076 118.389 247.402 117.501 246.816 116.329C246.25 115.157 245.771 113.878 245.381 112.491C245.009 111.085 244.716 109.63 244.502 108.126C244.306 106.602 244.209 105.225 244.209 103.995ZM251.298 102.325C251.279 102.676 251.269 103.028 251.269 103.38C251.269 104.083 251.298 104.805 251.357 105.547C251.435 106.641 251.591 107.696 251.826 108.712C252.08 109.727 252.402 110.684 252.793 111.583C253.203 112.462 253.701 113.155 254.287 113.663C254.443 113.819 254.697 113.917 255.048 113.956C255.42 113.995 255.81 114.014 256.22 114.014C256.67 114.014 257.148 113.995 257.656 113.956L256.162 110.557L257.715 111.319L258.798 109.532L259.736 110.469C260.166 110.899 260.654 111.368 261.201 111.876C261.884 110.84 262.382 109.893 262.695 109.034C263.007 108.155 263.232 107.315 263.369 106.514C263.486 105.714 263.554 105.001 263.574 104.376C263.593 103.731 263.603 103.165 263.603 102.676C263.603 101.954 263.584 101.143 263.545 100.245C263.506 99.3463 263.418 98.4381 263.281 97.5201C263.164 96.6022 262.988 95.733 262.754 94.9127C262.519 94.0924 262.197 93.4088 261.787 92.8619C261.338 92.3346 260.742 91.9049 260 91.5729C259.277 91.2213 258.506 91.0358 257.685 91.0162C257.646 91.0162 257.597 91.0162 257.539 91.0162C256.757 91.0162 256.006 91.1725 255.283 91.485C254.502 91.817 253.896 92.3737 253.466 93.1549C252.861 94.2291 252.363 95.5182 251.972 97.0221C251.601 98.526 251.377 100.294 251.298 102.325Z" fill="#F5F5F5"/>
<path d="M279.593 106.456C279.593 104.21 279.603 102.178 279.623 100.362C279.642 98.5455 279.701 96.7877 279.798 95.0885C279.896 93.3893 280.023 91.651 280.179 89.8737C280.336 88.0963 280.56 86.1432 280.853 84.0143L282.816 84.8053L285.16 83.0182L287.386 84.3951L288.207 84.1022C288.09 85.2936 287.963 86.8561 287.826 88.7897C287.689 90.7037 287.552 92.7155 287.416 94.8248C287.279 96.9147 287.181 98.9557 287.123 100.948C287.103 101.807 287.084 102.598 287.064 103.321C287.064 104.297 287.093 105.167 287.152 105.928C287.347 109.698 288.363 112.09 290.199 113.106C290.804 113.438 291.498 113.604 292.279 113.604C293.841 113.604 295.726 112.93 297.933 111.583C298.168 111.016 298.353 110.206 298.49 109.151C298.646 108.077 298.763 106.876 298.841 105.547C298.92 104.2 298.978 102.764 299.017 101.241C299.056 99.7174 299.076 98.1842 299.076 96.6412C299.115 94.0436 299.144 91.4752 299.164 88.9362C299.183 86.3776 299.232 84.2389 299.31 82.5201L300.951 82.11L302.972 86.1823L305.609 82.3444L307.015 82.2858C306.976 83.9264 306.927 86.192 306.869 89.0826C306.83 91.9537 306.791 95.1471 306.752 98.6627C306.713 102.178 306.693 105.831 306.693 109.62C306.693 113.389 306.732 116.964 306.81 120.342L305.316 119.844L303.295 121.602L301.068 120.137L299.31 120.987C299.271 120.792 299.203 120.528 299.105 120.196C299.007 119.844 298.822 119.307 298.548 118.585C297.357 119.112 296.039 119.571 294.593 119.962C293.148 120.333 291.732 120.587 290.345 120.723C289.603 120.801 288.89 120.84 288.207 120.84C287.621 120.84 287.054 120.811 286.507 120.753C285.336 120.635 284.427 120.333 283.783 119.844C282.787 119.122 282.006 118.126 281.439 116.856C280.873 115.567 280.453 114.249 280.179 112.901C279.906 111.534 279.74 110.264 279.681 109.092C279.623 107.901 279.593 107.022 279.593 106.456Z" fill="#F5F5F5"/>
<path d="M317.41 121.046V83.7213L318.728 83.2526L320.72 87.9401L323.24 83.4283L325.027 84.3951L326.726 83.7799L325.701 121.719L324.968 121.954L322.449 118.35L320.72 121.514L319.168 120.928L317.41 121.046Z" fill="#F5F5F5"/>
<path d="M336.564 86.4752L336.857 85.4205L360.558 83.7213L359.591 85.2155L361.291 86.9733L358.39 88.819L361.291 90.0787L361.056 91.1041L353.234 91.6608L352.824 121.514L351.916 121.778L349.953 117.501L348.576 121.163L347.111 119.669L345.382 120.753L345.09 92.0123L337.824 92.4811L338.117 91.3971L337.091 90.5768L340.461 88.0573L336.564 86.4752Z" fill="#F5F5F5"/>
<path d="M372.271 77.0123L373.707 75.7526C373.629 75.6354 373.531 75.4987 373.414 75.3424C373.336 75.2252 373.218 75.0983 373.062 74.9616C372.925 74.8053 372.818 74.6491 372.74 74.4928C375.064 73.8092 377.379 73.3698 379.683 73.1744C381.988 72.9791 384.361 73.0377 386.802 73.3502C388.756 73.5846 390.494 74.2096 392.017 75.2252C393.541 76.2213 394.781 77.442 395.738 78.8873C396.695 80.3131 397.349 81.8854 397.701 83.6041C398.072 85.3229 398.052 87.0416 397.642 88.7604C397.33 90.0494 396.744 91.2018 395.884 92.2174C395.025 93.233 393.961 94.1705 392.691 95.0299C391.441 95.8893 390.025 96.6803 388.443 97.403C386.861 98.1256 385.191 98.8092 383.433 99.4537C383.199 100.137 382.994 100.801 382.818 101.446C382.662 102.071 382.525 102.686 382.408 103.292C382.291 103.858 382.213 104.385 382.173 104.874C382.134 105.342 382.076 105.733 381.998 106.046L381.09 106.837L378.57 104.551L377.603 107.598L376.841 107.481C376.763 106.993 376.656 106.348 376.519 105.547C376.402 104.727 376.285 103.848 376.168 102.911C376.05 101.954 375.943 100.977 375.845 99.9811C375.748 98.985 375.699 98.0475 375.699 97.1686C376.422 96.778 377.281 96.3385 378.277 95.8502C379.273 95.3619 380.289 94.8444 381.324 94.2975C382.73 93.4967 383.97 92.6373 385.045 91.7194C386.119 90.8014 386.802 89.8737 387.095 88.9362C387.447 87.7838 387.506 86.7194 387.271 85.7428C387.037 84.7662 386.617 83.9166 386.011 83.194C385.406 82.4713 384.654 81.8854 383.756 81.4362C382.857 80.9674 381.929 80.694 380.972 80.6158C379.82 80.5377 378.541 80.4987 377.134 80.4987C375.728 80.4987 374.263 80.6354 372.74 80.9088L375.084 78.4479L372.271 77.0123ZM374.732 121.661C374.322 121.368 374.039 121.016 373.882 120.606C373.726 120.176 373.726 119.717 373.882 119.229C374.039 118.721 374.361 118.204 374.849 117.676C375.338 117.13 376.021 116.592 376.9 116.065C377.173 115.909 377.584 115.782 378.131 115.684C378.697 115.587 379.293 115.518 379.918 115.479C380.543 115.44 381.109 115.44 381.617 115.479C382.144 115.518 382.486 115.596 382.642 115.714C382.838 115.831 383.033 116.094 383.228 116.505C383.443 116.895 383.56 117.344 383.58 117.852C383.599 118.34 383.482 118.858 383.228 119.405C382.994 119.932 382.525 120.44 381.822 120.928C381.373 121.241 380.777 121.465 380.035 121.602C379.293 121.758 378.56 121.866 377.838 121.924C377.134 121.983 376.48 121.983 375.875 121.924C375.269 121.866 374.888 121.778 374.732 121.661Z" fill="#F5F5F5"/>
</g>
<path d="M3.34732 52.6608L12.8395 5.66858L14.0407 4.99475L16.3844 7.66077L20.2809 4.29163L24.236 9.15491L26.7555 4.81897H27.1071L37.3317 51.6354L36.2477 52.1041L33.1715 48.0319L32.0876 51.5182L29.8903 50.1412L28.6891 51.3424L26.404 44.3112L12.4294 44.4283L10.6715 52.3971L9.1188 51.5182L8.09341 52.4557L6.95084 49.0573L4.07974 53.1295L3.34732 52.6608ZM14.1579 37.2213L25.7301 36.4596L21.1891 17.2408L18.7868 16.8307L14.1579 37.2213Z" stroke="black" stroke-width="6" mask="url(#path-1-outside-1_1_4)"/>
<path d="M45.529 16.2741L45.734 15.1608C47.9411 14.4381 50.1481 13.8912 52.3551 13.5201C54.5817 13.1295 56.7301 12.9244 58.8004 12.9049C58.9176 12.9049 59.0251 12.9049 59.1227 12.9049C61.0758 12.9049 62.902 13.0709 64.6012 13.403C66.3786 13.7545 67.9215 14.36 69.2301 15.2194C70.4215 15.9811 71.3688 16.9381 72.0719 18.0905C72.7946 19.2428 73.2243 20.5416 73.361 21.9869C73.4001 22.3385 73.4196 22.7096 73.4196 23.1002C73.4196 24.2135 73.2536 25.3951 72.9215 26.6451C72.4919 28.3053 71.7497 29.9948 70.695 31.7135C70.4997 32.0651 70.1969 32.5045 69.7868 33.0319C69.3766 33.5592 68.9274 34.1256 68.4391 34.7311C67.9704 35.317 67.4528 35.903 66.8864 36.4889C66.3395 37.0553 65.8024 37.5631 65.2751 38.0123C65.7633 39.1647 66.2809 40.3854 66.8278 41.6744C67.3942 42.944 67.9411 44.1744 68.4684 45.3658C69.0153 46.5377 69.5329 47.6217 70.0211 48.6178C70.5094 49.5944 70.8903 50.3561 71.1637 50.903L70.7536 51.3424L67.2672 49.4088L67.0915 52.3971L65.8903 51.8698L64.8063 52.6022L57.5407 41.3815L53.7614 42.8756L53.4684 51.8698L52.5016 51.7526L50.5094 48.6178L48.9567 52.6608L47.8727 52.2213C47.8336 51.0299 47.7653 49.3209 47.6676 47.0944C47.57 44.8678 47.4821 42.4459 47.404 39.8287C47.3258 37.2116 47.2868 34.5553 47.2868 31.86C47.2868 29.1647 47.3649 26.7135 47.5211 24.5065L47.6969 22.1627L45.7926 20.7858L48.9567 17.9147L45.529 16.2741ZM54.1715 35.1412C55.6169 34.5748 57.1012 33.8131 58.6247 32.8561C60.1481 31.8991 61.4665 30.8541 62.5797 29.7213C63.693 28.569 64.5036 27.3776 65.0114 26.1471C65.2458 25.6002 65.3629 25.0533 65.3629 24.5065C65.3629 23.8619 65.1969 23.2272 64.8649 22.6022C64.5133 21.9576 63.7614 21.5475 62.609 21.3717C61.6715 21.2155 60.7047 21.1373 59.7086 21.1373C59.4938 21.1373 59.2692 21.1373 59.0348 21.1373C57.5895 21.2155 56.0075 21.401 54.2887 21.694L54.1715 35.1412Z" stroke="black" stroke-width="6" mask="url(#path-1-outside-1_1_4)"/>
<path d="M82.5544 17.6217L83.3747 15.6881L82.9645 14.8971L100.132 13.7545L100.66 16.0983L96.9391 18.6764L100.484 19.7604L100.015 21.0787L91.2555 21.8698L91.0504 31.0983L99.8102 30.8053L98.8141 33.9401L100.543 34.6432L100.25 36.2545L91.1676 37.1627L91.5485 46.9479L100.601 46.5963L100.015 49.7018L101.627 50.4342L100.953 52.7194L86.8024 53.5397L87.0368 50.4928L83.3747 50.7272L83.7555 22.6608L83.0231 21.4596L85.6012 19.233L82.5544 17.6217Z" stroke="black" stroke-width="6" mask="url(#path-1-outside-1_1_4)"/>
<path d="M127.865 15.2194L128.949 14.1354L132.172 16.5963L132.347 13.0514L134.632 12.7584L141.166 27.8756L142.132 27.9928L145.795 13.2272L146.703 13.0514L147.904 16.4791L150.365 13.5787L151.127 14.6041L153.353 13.8424L143.509 51.1959L142.425 51.8112L141.166 49.1158L138.412 51.8112L137.093 50.903L136.39 51.1373L140.052 34.7018L136.859 34.5846L127.865 15.2194Z" stroke="black" stroke-width="6" mask="url(#path-1-outside-1_1_4)"/>
<path d="M160.173 38.5104C160.095 37.4362 160.047 36.3619 160.027 35.2877C160.027 34.0963 160.086 32.9049 160.203 31.7135C160.593 27.6315 161.16 24.4283 161.902 22.1041C162.644 19.7799 163.738 18.0026 165.183 16.7721C165.711 16.3229 166.375 15.8737 167.175 15.4244C167.996 14.9557 168.904 14.5553 169.9 14.2233C170.916 13.8717 172 13.6276 173.152 13.4908C173.699 13.4323 174.246 13.403 174.793 13.403L176.638 13.5201L176.521 17.0065L179.451 15.2194L180.711 17.0651L182.703 16.2741C184.187 17.7975 185.32 19.985 186.101 22.8366C186.902 25.6686 187.302 29.1451 187.302 33.2662C187.302 34.6334 187.224 36.1276 187.068 37.7487C186.912 39.3698 186.629 40.9616 186.218 42.5241C185.828 44.067 185.3 45.4928 184.636 46.8014C183.972 48.0905 183.142 49.0963 182.146 49.819C180.74 50.8151 179.324 51.5768 177.898 52.1041C176.492 52.6315 175.115 52.9635 173.767 53.1002C173.142 53.1588 172.517 53.1881 171.892 53.1881C171.209 53.1881 170.554 53.1491 169.929 53.0709C168.738 52.9147 167.654 52.651 166.677 52.2799C165.447 51.8307 164.373 50.9323 163.455 49.5846C162.556 48.2174 161.824 46.5963 161.257 44.7213C160.711 42.8463 160.349 40.776 160.173 38.5104ZM167.322 33.0319C167.263 33.7936 167.244 34.5455 167.263 35.2877C167.263 36.694 167.361 38.0807 167.556 39.4479C167.849 41.5182 168.396 43.1783 169.197 44.4283C169.588 45.0729 170.164 45.5612 170.925 45.8932C171.687 46.2057 172.498 46.3619 173.357 46.3619C174.216 46.3619 175.037 46.2155 175.818 45.9225C176.599 45.61 177.195 45.1315 177.605 44.4869C177.996 43.8424 178.377 42.9147 178.748 41.7037C179.138 40.4733 179.441 39.1256 179.656 37.6608C179.89 36.1764 180.027 34.6334 180.066 33.0319C180.066 32.817 180.066 32.6022 180.066 32.3873C180.066 31.0201 179.949 29.7018 179.715 28.4323C179.461 26.9674 179.031 25.6588 178.425 24.5065C177.84 23.3541 177.039 22.4752 176.023 21.8698C175.379 21.4791 174.627 21.2838 173.767 21.2838C173.728 21.2838 173.679 21.2838 173.621 21.2838C172.703 21.3033 171.912 21.6158 171.248 22.2213C170.095 23.2565 169.187 24.7701 168.523 26.7623C167.879 28.735 167.478 30.8248 167.322 33.0319Z" stroke="black" stroke-width="6" mask="url(#path-1-outside-1_1_4)"/>
<path d="M196.847 37.4557C196.847 35.2096 196.857 33.1783 196.877 31.3619C196.896 29.5455 196.955 27.7877 197.052 26.0885C197.15 24.3893 197.277 22.651 197.433 20.8737C197.59 19.0963 197.814 17.1432 198.107 15.0143L200.07 15.8053L202.414 14.0182L204.64 15.3951L205.461 15.1022C205.343 16.2936 205.216 17.8561 205.08 19.7897C204.943 21.7037 204.806 23.7155 204.67 25.8248C204.533 27.9147 204.435 29.9557 204.377 31.9479C204.357 32.8073 204.338 33.5983 204.318 34.3209C204.318 35.2975 204.347 36.1666 204.406 36.9283C204.601 40.6979 205.617 43.0905 207.453 44.1061C208.058 44.4381 208.752 44.6041 209.533 44.6041C211.095 44.6041 212.98 43.9303 215.187 42.5826C215.422 42.0162 215.607 41.2057 215.744 40.151C215.9 39.0768 216.017 37.8756 216.095 36.5475C216.173 35.1998 216.232 33.7643 216.271 32.2408C216.31 30.7174 216.33 29.1842 216.33 27.6412C216.369 25.0436 216.398 22.4752 216.418 19.9362C216.437 17.3776 216.486 15.2389 216.564 13.5201L218.205 13.11L220.226 17.1823L222.863 13.3444L224.269 13.2858C224.23 14.9264 224.181 17.192 224.123 20.0826C224.084 22.9537 224.045 26.1471 224.006 29.6627C223.966 33.1783 223.947 36.8307 223.947 40.6198C223.947 44.3893 223.986 47.9635 224.064 51.3424L222.57 50.8444L220.548 52.6022L218.322 51.1373L216.564 51.9869C216.525 51.7916 216.457 51.528 216.359 51.1959C216.261 50.8444 216.076 50.3073 215.802 49.5846C214.611 50.1119 213.293 50.5709 211.847 50.9616C210.402 51.3326 208.986 51.5866 207.599 51.7233C206.857 51.8014 206.144 51.8405 205.461 51.8405C204.875 51.8405 204.308 51.8112 203.761 51.7526C202.59 51.6354 201.681 51.3326 201.037 50.8444C200.041 50.1217 199.259 49.1256 198.693 47.8561C198.127 46.567 197.707 45.2487 197.433 43.901C197.16 42.5338 196.994 41.2643 196.935 40.0924C196.877 38.901 196.847 38.0221 196.847 37.4557Z" stroke="black" stroke-width="6" mask="url(#path-1-outside-1_1_4)"/>
<path d="M251.533 28.5201C251.689 26.4889 252.295 24.6334 253.349 22.9537C254.423 21.2741 255.791 19.8287 257.451 18.6178C259.111 17.3873 260.957 16.3815 262.988 15.6002C265.039 14.819 267.129 14.3112 269.257 14.0768C269.668 14.0182 270.166 13.9791 270.752 13.9596C270.908 13.9596 271.064 13.9694 271.22 13.9889C272.021 14.0084 272.705 14.0377 273.271 14.0768L273.506 14.8385L269.609 17.0065L272.715 18.5006L271.396 19.7604L272.304 21.4596C270.859 21.5768 269.433 21.7721 268.027 22.0455C266.64 22.319 265.39 22.6998 264.277 23.1881C263.183 23.6764 262.256 24.2721 261.494 24.9752C260.732 25.6588 260.273 26.4596 260.117 27.3776C260.078 27.6119 260.058 27.8463 260.058 28.0807C260.058 28.8229 260.322 29.4479 260.849 29.9557C261.533 30.6393 262.353 31.2057 263.31 31.6549C263.798 31.8502 264.297 32.0358 264.804 32.2116C265.332 32.3873 265.849 32.5631 266.357 32.7389C266.845 32.8951 267.304 33.0319 267.734 33.1491C268.183 33.2662 268.564 33.3639 268.877 33.442C270.791 34.0475 272.285 34.8776 273.359 35.9323C274.453 36.9869 275 38.5397 275 40.5905C275 42.7584 274.404 44.6725 273.213 46.3326C272.041 47.9928 270.195 49.4576 267.675 50.7272C266.679 51.2155 265.673 51.6256 264.658 51.9576C263.642 52.2897 262.646 52.5729 261.67 52.8073C260.713 53.0612 259.804 53.2467 258.945 53.3639C258.086 53.4811 257.295 53.5787 256.572 53.6569L257.597 51.7526L254.843 50.9616L256.045 49.1744L255.019 48.0905C255.703 47.9342 256.455 47.7682 257.275 47.5924C258.095 47.3971 258.925 47.1823 259.765 46.9479C260.527 46.7135 261.298 46.4303 262.08 46.0983C262.861 45.7467 263.564 45.3366 264.189 44.8678C264.834 44.3795 265.361 43.8424 265.771 43.2565C266.201 42.6705 266.416 42.0455 266.416 41.3815C266.416 40.5416 266.006 39.8483 265.185 39.3014C264.365 38.7545 263.457 38.3248 262.461 38.0123C261.425 37.6608 260.39 37.3678 259.355 37.1334C258.34 36.8795 257.578 36.6549 257.07 36.4596C255.273 35.7369 253.857 34.7604 252.822 33.5299C251.943 32.4752 251.504 31.0885 251.504 29.3698C251.504 29.0963 251.513 28.8131 251.533 28.5201Z" stroke="black" stroke-width="6" mask="url(#path-1-outside-1_1_4)"/>
<path d="M285.043 37.4557C285.043 35.2096 285.052 33.1783 285.072 31.3619C285.091 29.5455 285.15 27.7877 285.248 26.0885C285.345 24.3893 285.472 22.651 285.629 20.8737C285.785 19.0963 286.009 17.1432 286.302 15.0143L288.265 15.8053L290.609 14.0182L292.836 15.3951L293.656 15.1022C293.539 16.2936 293.412 17.8561 293.275 19.7897C293.138 21.7037 293.002 23.7155 292.865 25.8248C292.728 27.9147 292.631 29.9557 292.572 31.9479C292.552 32.8073 292.533 33.5983 292.513 34.3209C292.513 35.2975 292.543 36.1666 292.601 36.9283C292.797 40.6979 293.812 43.0905 295.648 44.1061C296.254 44.4381 296.947 44.6041 297.728 44.6041C299.291 44.6041 301.175 43.9303 303.382 42.5826C303.617 42.0162 303.802 41.2057 303.939 40.151C304.095 39.0768 304.213 37.8756 304.291 36.5475C304.369 35.1998 304.427 33.7643 304.466 32.2408C304.506 30.7174 304.525 29.1842 304.525 27.6412C304.564 25.0436 304.593 22.4752 304.613 19.9362C304.632 17.3776 304.681 15.2389 304.759 13.5201L306.4 13.11L308.422 17.1823L311.058 13.3444L312.465 13.2858C312.425 14.9264 312.377 17.192 312.318 20.0826C312.279 22.9537 312.24 26.1471 312.201 29.6627C312.162 33.1783 312.142 36.8307 312.142 40.6198C312.142 44.3893 312.181 47.9635 312.259 51.3424L310.765 50.8444L308.744 52.6022L306.517 51.1373L304.759 51.9869C304.72 51.7916 304.652 51.528 304.554 51.1959C304.457 50.8444 304.271 50.3073 303.998 49.5846C302.806 50.1119 301.488 50.5709 300.043 50.9616C298.597 51.3326 297.181 51.5866 295.795 51.7233C295.052 51.8014 294.34 51.8405 293.656 51.8405C293.07 51.8405 292.504 51.8112 291.957 51.7526C290.785 51.6354 289.877 51.3326 289.232 50.8444C288.236 50.1217 287.455 49.1256 286.888 47.8561C286.322 46.567 285.902 45.2487 285.629 43.901C285.355 42.5338 285.189 41.2643 285.131 40.0924C285.072 38.901 285.043 38.0221 285.043 37.4557Z" stroke="black" stroke-width="6" mask="url(#path-1-outside-1_1_4)"/>
<path d="M321.775 16.2741L321.98 15.1608C324.187 14.4381 326.394 13.8912 328.601 13.5201C330.828 13.1295 332.976 12.9244 335.047 12.9049C335.164 12.9049 335.271 12.9049 335.369 12.9049C337.322 12.9049 339.148 13.0709 340.847 13.403C342.625 13.7545 344.168 14.36 345.476 15.2194C346.668 15.9811 347.615 16.9381 348.318 18.0905C349.041 19.2428 349.47 20.5416 349.607 21.9869C349.646 22.3385 349.666 22.7096 349.666 23.1002C349.666 24.2135 349.5 25.3951 349.168 26.6451C348.738 28.3053 347.996 29.9948 346.941 31.7135C346.746 32.0651 346.443 32.5045 346.033 33.0319C345.623 33.5592 345.173 34.1256 344.685 34.7311C344.216 35.317 343.699 35.903 343.132 36.4889C342.586 37.0553 342.048 37.5631 341.521 38.0123C342.009 39.1647 342.527 40.3854 343.074 41.6744C343.64 42.944 344.187 44.1744 344.715 45.3658C345.261 46.5377 345.779 47.6217 346.267 48.6178C346.756 49.5944 347.136 50.3561 347.41 50.903L347 51.3424L343.513 49.4088L343.338 52.3971L342.136 51.8698L341.052 52.6022L333.787 41.3815L330.007 42.8756L329.715 51.8698L328.748 51.7526L326.756 48.6178L325.203 52.6608L324.119 52.2213C324.08 51.0299 324.011 49.3209 323.914 47.0944C323.816 44.8678 323.728 42.4459 323.65 39.8287C323.572 37.2116 323.533 34.5553 323.533 31.86C323.533 29.1647 323.611 26.7135 323.767 24.5065L323.943 22.1627L322.039 20.7858L325.203 17.9147L321.775 16.2741ZM330.418 35.1412C331.863 34.5748 333.347 33.8131 334.871 32.8561C336.394 31.8991 337.713 30.8541 338.826 29.7213C339.939 28.569 340.75 27.3776 341.257 26.1471C341.492 25.6002 341.609 25.0533 341.609 24.5065C341.609 23.8619 341.443 23.2272 341.111 22.6022C340.759 21.9576 340.007 21.5475 338.855 21.3717C337.918 21.2155 336.951 21.1373 335.955 21.1373C335.74 21.1373 335.515 21.1373 335.281 21.1373C333.836 21.2155 332.254 21.401 330.535 21.694L330.418 35.1412Z" stroke="black" stroke-width="6" mask="url(#path-1-outside-1_1_4)"/>
<path d="M358.8 17.6217L359.621 15.6881L359.211 14.8971L376.379 13.7545L376.906 16.0983L373.185 18.6764L376.73 19.7604L376.261 21.0787L367.502 21.8698L367.297 31.0983L376.056 30.8053L375.06 33.9401L376.789 34.6432L376.496 36.2545L367.414 37.1627L367.795 46.9479L376.847 46.5963L376.261 49.7018L377.873 50.4342L377.199 52.7194L363.048 53.5397L363.283 50.4928L359.621 50.7272L360.002 22.6608L359.269 21.4596L361.847 19.233L358.8 17.6217Z" stroke="black" stroke-width="6" mask="url(#path-1-outside-1_1_4)"/>
<path d="M403.818 14.7213L404.931 14.5455L407.275 17.1823L409.091 14.7799L410.703 14.9557L413.632 33.8229H414.716L419.931 14.2526L420.605 14.1354L423.125 18.2662L425.82 14.4283L426.113 14.6627L430.273 33.735L431.65 33.6764L435.429 14.7213L436.25 14.6041L437.158 18.5006L440.879 13.8424L441.963 13.9596L435.078 51.694L434.17 51.1959L431.709 52.6608L429.658 50.903L427.578 51.8698L422.597 32.5338H421.513L415.742 52.6022L413.75 53.2467L411.435 49.3502L409.502 53.0123L408.711 52.778L403.818 14.7213Z" stroke="black" stroke-width="6" mask="url(#path-1-outside-1_1_4)"/>
<path d="M445.736 51.5768L453.47 14.5455L455.873 15.278L458.07 13.3444L461.381 17.4166L463.256 13.7545L465.336 15.0143L467.269 13.901L474.271 51.8112L472.953 50.903L470.756 52.1627L469.056 49.9948L467.445 51.6354L465.218 43.5201L454.056 44.4283L451.918 52.6022L451.302 52.8366L449.398 50.4342L446.996 52.3385L445.736 51.5768ZM455.55 37.6022L464.134 36.8112L461.146 23.3639L458.627 23.5397L455.55 37.6022Z" stroke="black" stroke-width="6" mask="url(#path-1-outside-1_1_4)"/>
<path d="M483.582 15.2194L486.218 13.8424L488.328 16.0397L490.965 15.1608L503.211 37.3971H504.412L504.06 15.3366L505.613 14.4283L508.308 18.1491L510.828 14.3698L511.912 14.5455L511.853 53.0709L511.179 53.4811L509.041 51.2545L506.023 53.3639L504.822 53.1295L492.722 34.0573L491.199 33.8815L490.73 53.2467L489.002 53.0123L486.658 49.819L484.9 53.3639L483.875 52.8366L483.582 15.2194Z" stroke="black" stroke-width="6" mask="url(#path-1-outside-1_1_4)"/>
<path d="M521.662 17.4752L521.955 16.4205L545.656 14.7213L544.689 16.2155L546.388 17.9733L543.488 19.819L546.388 21.0787L546.154 22.1041L538.332 22.6608L537.922 52.5143L537.013 52.778L535.05 48.5006L533.673 52.1627L532.209 50.6686L530.48 51.7526L530.187 23.0123L522.922 23.4811L523.215 22.3971L522.189 21.5768L525.558 19.0573L521.662 17.4752Z" stroke="black" stroke-width="6" mask="url(#path-1-outside-1_1_4)"/>
<path d="M572.861 17.4752L573.154 16.4205L596.855 14.7213L595.888 16.2155L597.588 17.9733L594.687 19.819L597.588 21.0787L597.353 22.1041L589.531 22.6608L589.121 52.5143L588.213 52.778L586.25 48.5006L584.873 52.1627L583.408 50.6686L581.679 51.7526L581.386 23.0123L574.121 23.4811L574.414 22.3971L573.388 21.5768L576.757 19.0573L572.861 17.4752Z" stroke="black" stroke-width="6" mask="url(#path-1-outside-1_1_4)"/>
<path d="M603.705 38.5104C603.627 37.4362 603.578 36.3619 603.558 35.2877C603.558 34.0963 603.617 32.9049 603.734 31.7135C604.125 27.6315 604.691 24.4283 605.433 22.1041C606.175 19.7799 607.269 18.0026 608.715 16.7721C609.242 16.3229 609.906 15.8737 610.707 15.4244C611.527 14.9557 612.435 14.5553 613.431 14.2233C614.447 13.8717 615.531 13.6276 616.683 13.4908C617.23 13.4323 617.777 13.403 618.324 13.403L620.17 13.5201L620.052 17.0065L622.982 15.2194L624.242 17.0651L626.234 16.2741C627.718 17.7975 628.851 19.985 629.632 22.8366C630.433 25.6686 630.834 29.1451 630.834 33.2662C630.834 34.6334 630.756 36.1276 630.599 37.7487C630.443 39.3698 630.16 40.9616 629.75 42.5241C629.359 44.067 628.832 45.4928 628.168 46.8014C627.504 48.0905 626.673 49.0963 625.677 49.819C624.271 50.8151 622.855 51.5768 621.429 52.1041C620.023 52.6315 618.646 52.9635 617.298 53.1002C616.673 53.1588 616.048 53.1881 615.423 53.1881C614.74 53.1881 614.086 53.1491 613.461 53.0709C612.269 52.9147 611.185 52.651 610.209 52.2799C608.978 51.8307 607.904 50.9323 606.986 49.5846C606.088 48.2174 605.355 46.5963 604.789 44.7213C604.242 42.8463 603.881 40.776 603.705 38.5104ZM610.853 33.0319C610.795 33.7936 610.775 34.5455 610.795 35.2877C610.795 36.694 610.892 38.0807 611.088 39.4479C611.381 41.5182 611.927 43.1783 612.728 44.4283C613.119 45.0729 613.695 45.5612 614.457 45.8932C615.218 46.2057 616.029 46.3619 616.888 46.3619C617.748 46.3619 618.568 46.2155 619.349 45.9225C620.131 45.61 620.726 45.1315 621.136 44.4869C621.527 43.8424 621.908 42.9147 622.279 41.7037C622.67 40.4733 622.972 39.1256 623.187 37.6608C623.422 36.1764 623.558 34.6334 623.597 33.0319C623.597 32.817 623.597 32.6022 623.597 32.3873C623.597 31.0201 623.48 29.7018 623.246 28.4323C622.992 26.9674 622.562 25.6588 621.957 24.5065C621.371 23.3541 620.57 22.4752 619.554 21.8698C618.91 21.4791 618.158 21.2838 617.298 21.2838C617.259 21.2838 617.211 21.2838 617.152 21.2838C616.234 21.3033 615.443 21.6158 614.779 22.2213C613.627 23.2565 612.718 24.7701 612.054 26.7623C611.41 28.735 611.009 30.8248 610.853 33.0319Z" stroke="black" stroke-width="6" mask="url(#path-1-outside-1_1_4)"/>
<path d="M244.209 103.995C244.209 102.237 244.267 100.508 244.384 98.8092C244.521 97.11 244.765 95.4889 245.117 93.9459C245.468 92.3834 245.996 90.8893 246.699 89.4635C247.402 88.0377 248.34 86.7487 249.511 85.5963C250.39 84.7174 251.504 84.0631 252.851 83.6334C254.218 83.1842 255.625 82.9205 257.07 82.8424C257.422 82.8229 257.773 82.8033 258.125 82.7838C259.179 82.7838 260.185 82.8815 261.142 83.0768C262.431 83.3112 263.427 83.6725 264.131 84.1608C265.205 84.8834 266.142 85.8112 266.943 86.944C267.744 88.0768 268.398 89.3366 268.906 90.7233C269.414 92.0905 269.785 93.5162 270.019 95.0006C270.254 96.485 270.371 97.9108 270.371 99.278C270.371 100.079 270.381 100.86 270.4 101.622C270.4 101.876 270.41 102.13 270.429 102.383C270.429 102.891 270.41 103.409 270.371 103.936C270.332 104.737 270.283 105.508 270.224 106.251C270.166 106.993 270.058 107.745 269.902 108.506C269.629 109.952 269.15 111.397 268.466 112.842C267.783 114.268 266.621 115.899 264.98 117.735C265.625 118.458 266.289 119.19 266.972 119.932C267.675 120.674 268.193 121.202 268.525 121.514L267.734 122.364L265.215 121.28L264.922 123.448L263.603 123.565C263.408 123.37 263.056 122.96 262.548 122.335C262.041 121.71 261.513 121.065 260.966 120.401C260.048 120.674 259.052 120.889 257.978 121.046C257.216 121.163 256.445 121.221 255.664 121.221L254.814 121.192C253.759 121.133 252.715 120.938 251.679 120.606C250.664 120.255 249.716 119.717 248.838 118.995C248.076 118.389 247.402 117.501 246.816 116.329C246.25 115.157 245.771 113.878 245.381 112.491C245.009 111.085 244.716 109.63 244.502 108.126C244.306 106.602 244.209 105.225 244.209 103.995ZM251.298 102.325C251.279 102.676 251.269 103.028 251.269 103.38C251.269 104.083 251.298 104.805 251.357 105.547C251.435 106.641 251.591 107.696 251.826 108.712C252.08 109.727 252.402 110.684 252.793 111.583C253.203 112.462 253.701 113.155 254.287 113.663C254.443 113.819 254.697 113.917 255.048 113.956C255.42 113.995 255.81 114.014 256.22 114.014C256.67 114.014 257.148 113.995 257.656 113.956L256.162 110.557L257.715 111.319L258.798 109.532L259.736 110.469C260.166 110.899 260.654 111.368 261.201 111.876C261.884 110.84 262.382 109.893 262.695 109.034C263.007 108.155 263.232 107.315 263.369 106.514C263.486 105.714 263.554 105.001 263.574 104.376C263.593 103.731 263.603 103.165 263.603 102.676C263.603 101.954 263.584 101.143 263.545 100.245C263.506 99.3463 263.418 98.4381 263.281 97.5201C263.164 96.6022 262.988 95.733 262.754 94.9127C262.519 94.0924 262.197 93.4088 261.787 92.8619C261.338 92.3346 260.742 91.9049 260 91.5729C259.277 91.2213 258.506 91.0358 257.685 91.0162C257.646 91.0162 257.597 91.0162 257.539 91.0162C256.757 91.0162 256.006 91.1725 255.283 91.485C254.502 91.817 253.896 92.3737 253.466 93.1549C252.861 94.2291 252.363 95.5182 251.972 97.0221C251.601 98.526 251.377 100.294 251.298 102.325Z" stroke="black" stroke-width="6" mask="url(#path-1-outside-1_1_4)"/>
<path d="M279.593 106.456C279.593 104.21 279.603 102.178 279.623 100.362C279.642 98.5455 279.701 96.7877 279.798 95.0885C279.896 93.3893 280.023 91.651 280.179 89.8737C280.336 88.0963 280.56 86.1432 280.853 84.0143L282.816 84.8053L285.16 83.0182L287.386 84.3951L288.207 84.1022C288.09 85.2936 287.963 86.8561 287.826 88.7897C287.689 90.7037 287.552 92.7155 287.416 94.8248C287.279 96.9147 287.181 98.9557 287.123 100.948C287.103 101.807 287.084 102.598 287.064 103.321C287.064 104.297 287.093 105.167 287.152 105.928C287.347 109.698 288.363 112.09 290.199 113.106C290.804 113.438 291.498 113.604 292.279 113.604C293.841 113.604 295.726 112.93 297.933 111.583C298.168 111.016 298.353 110.206 298.49 109.151C298.646 108.077 298.763 106.876 298.841 105.547C298.92 104.2 298.978 102.764 299.017 101.241C299.056 99.7174 299.076 98.1842 299.076 96.6412C299.115 94.0436 299.144 91.4752 299.164 88.9362C299.183 86.3776 299.232 84.2389 299.31 82.5201L300.951 82.11L302.972 86.1823L305.609 82.3444L307.015 82.2858C306.976 83.9264 306.927 86.192 306.869 89.0826C306.83 91.9537 306.791 95.1471 306.752 98.6627C306.713 102.178 306.693 105.831 306.693 109.62C306.693 113.389 306.732 116.964 306.81 120.342L305.316 119.844L303.295 121.602L301.068 120.137L299.31 120.987C299.271 120.792 299.203 120.528 299.105 120.196C299.007 119.844 298.822 119.307 298.548 118.585C297.357 119.112 296.039 119.571 294.593 119.962C293.148 120.333 291.732 120.587 290.345 120.723C289.603 120.801 288.89 120.84 288.207 120.84C287.621 120.84 287.054 120.811 286.507 120.753C285.336 120.635 284.427 120.333 283.783 119.844C282.787 119.122 282.006 118.126 281.439 116.856C280.873 115.567 280.453 114.249 280.179 112.901C279.906 111.534 279.74 110.264 279.681 109.092C279.623 107.901 279.593 107.022 279.593 106.456Z" stroke="black" stroke-width="6" mask="url(#path-1-outside-1_1_4)"/>
<path d="M317.41 121.046V83.7213L318.728 83.2526L320.72 87.9401L323.24 83.4283L325.027 84.3951L326.726 83.7799L325.701 121.719L324.968 121.954L322.449 118.35L320.72 121.514L319.168 120.928L317.41 121.046Z" stroke="black" stroke-width="6" mask="url(#path-1-outside-1_1_4)"/>
<path d="M336.564 86.4752L336.857 85.4205L360.558 83.7213L359.591 85.2155L361.291 86.9733L358.39 88.819L361.291 90.0787L361.056 91.1041L353.234 91.6608L352.824 121.514L351.916 121.778L349.953 117.501L348.576 121.163L347.111 119.669L345.382 120.753L345.09 92.0123L337.824 92.4811L338.117 91.3971L337.091 90.5768L340.461 88.0573L336.564 86.4752Z" stroke="black" stroke-width="6" mask="url(#path-1-outside-1_1_4)"/>
<path d="M372.271 77.0123L373.707 75.7526C373.629 75.6354 373.531 75.4987 373.414 75.3424C373.336 75.2252 373.218 75.0983 373.062 74.9616C372.925 74.8053 372.818 74.6491 372.74 74.4928C375.064 73.8092 377.379 73.3698 379.683 73.1744C381.988 72.9791 384.361 73.0377 386.802 73.3502C388.756 73.5846 390.494 74.2096 392.017 75.2252C393.541 76.2213 394.781 77.442 395.738 78.8873C396.695 80.3131 397.349 81.8854 397.701 83.6041C398.072 85.3229 398.052 87.0416 397.642 88.7604C397.33 90.0494 396.744 91.2018 395.884 92.2174C395.025 93.233 393.961 94.1705 392.691 95.0299C391.441 95.8893 390.025 96.6803 388.443 97.403C386.861 98.1256 385.191 98.8092 383.433 99.4537C383.199 100.137 382.994 100.801 382.818 101.446C382.662 102.071 382.525 102.686 382.408 103.292C382.291 103.858 382.213 104.385 382.173 104.874C382.134 105.342 382.076 105.733 381.998 106.046L381.09 106.837L378.57 104.551L377.603 107.598L376.841 107.481C376.763 106.993 376.656 106.348 376.519 105.547C376.402 104.727 376.285 103.848 376.168 102.911C376.05 101.954 375.943 100.977 375.845 99.9811C375.748 98.985 375.699 98.0475 375.699 97.1686C376.422 96.778 377.281 96.3385 378.277 95.8502C379.273 95.3619 380.289 94.8444 381.324 94.2975C382.73 93.4967 383.97 92.6373 385.045 91.7194C386.119 90.8014 386.802 89.8737 387.095 88.9362C387.447 87.7838 387.506 86.7194 387.271 85.7428C387.037 84.7662 386.617 83.9166 386.011 83.194C385.406 82.4713 384.654 81.8854 383.756 81.4362C382.857 80.9674 381.929 80.694 380.972 80.6158C379.82 80.5377 378.541 80.4987 377.134 80.4987C375.728 80.4987 374.263 80.6354 372.74 80.9088L375.084 78.4479L372.271 77.0123ZM374.732 121.661C374.322 121.368 374.039 121.016 373.882 120.606C373.726 120.176 373.726 119.717 373.882 119.229C374.039 118.721 374.361 118.204 374.849 117.676C375.338 117.13 376.021 116.592 376.9 116.065C377.173 115.909 377.584 115.782 378.131 115.684C378.697 115.587 379.293 115.518 379.918 115.479C380.543 115.44 381.109 115.44 381.617 115.479C382.144 115.518 382.486 115.596 382.642 115.714C382.838 115.831 383.033 116.094 383.228 116.505C383.443 116.895 383.56 117.344 383.58 117.852C383.599 118.34 383.482 118.858 383.228 119.405C382.994 119.932 382.525 120.44 381.822 120.928C381.373 121.241 380.777 121.465 380.035 121.602C379.293 121.758 378.56 121.866 377.838 121.924C377.134 121.983 376.48 121.983 375.875 121.924C375.269 121.866 374.888 121.778 374.732 121.661Z" stroke="black" stroke-width="6" mask="url(#path-1-outside-1_1_4)"/>
<defs>
<filter id="filter0_i_1_4" x="0" y="0" width="633.834" height="130.677" filterUnits="userSpaceOnUse" color-interpolation-filters="sRGB">
<feFlood flood-opacity="0" result="BackgroundImageFix"/>
<feBlend mode="normal" in="SourceGraphic" in2="BackgroundImageFix" result="shape"/>
<feColorMatrix in="SourceAlpha" type="matrix" values="0 0 0 0 0 0 0 0 0 0 0 0 0 0 0 0 0 0 127 0" result="hardAlpha"/>
<feOffset dy="4"/>
<feGaussianBlur stdDeviation="2"/>
<feComposite in2="hardAlpha" operator="arithmetic" k2="-1" k3="1"/>
<feColorMatrix type="matrix" values="0 0 0 0 0.669231 0 0 0 0 0.350059 0 0 0 0 0.350059 0 0 0 0.25 0"/>
<feBlend mode="normal" in2="shape" result="effect1_innerShadow_1_4"/>
</filter>
</defs>
</svg>
