<svg width="167" height="57" viewBox="0 0 167 57" fill="none" xmlns="http://www.w3.org/2000/svg">
<mask id="path-1-outside-1_1_7" maskUnits="userSpaceOnUse" x="0" y="-0.397705" width="167" height="58" fill="black">
<rect fill="white" y="-0.397705" width="167" height="58"/>
<path d="M3.14648 23.8757C3.04883 23.2898 3 22.6941 3 22.0886C3 21.3269 3.08789 20.5457 3.26367 19.7449C3.55664 18.2996 4.08398 16.8054 4.8457 15.2625C5.56836 13.7781 6.7207 12.3816 8.30273 11.073C9.9043 9.74487 11.7207 8.573 13.752 7.55737C15.8027 6.52222 17.9609 5.67261 20.2266 5.00854C22.4922 4.32495 24.6602 3.8562 26.7305 3.60229L25.9102 5.59448L28.3711 6.3855L24.5918 9.43237L29.6309 10.6921L29.1914 12.6843C27.7852 12.9187 26.2324 13.2605 24.5332 13.7097C22.8535 14.1394 21.2617 14.6765 19.7578 15.321C18.2539 15.9656 16.9453 16.7371 15.832 17.6355C14.7383 18.5339 14.0938 19.5593 13.8984 20.7117C13.8594 20.9656 13.8398 21.2195 13.8398 21.4734C13.8398 22.4304 14.1621 23.2703 14.8066 23.9929C15.6074 24.8914 16.6133 25.6628 17.8242 26.3074C19.0547 26.9324 20.3242 27.489 21.6328 27.9773C22.9609 28.4656 24.0254 28.905 24.8262 29.2957C25.7441 29.7839 26.6035 30.3601 27.4043 31.0242C28.2051 31.6687 28.8496 32.4597 29.3379 33.3972C29.8457 34.3347 30.168 35.4285 30.3047 36.6785C30.3438 37.03 30.3633 37.3914 30.3633 37.7625C30.3633 38.739 30.2363 39.8328 29.9824 41.0437C29.4941 43.114 28.4785 44.9597 26.9355 46.5808C25.4121 48.1824 23.5273 49.5007 21.2812 50.5359C19.1133 51.532 16.7891 52.2253 14.3086 52.616C11.8281 53.0261 9.43555 53.2703 7.13086 53.3484L6.57422 52.7625L9.82617 49.95L6.28125 48.9832L7.48242 47.9578C7.4043 47.7234 7.30664 47.4988 7.18945 47.2839C7.11133 47.0886 7.00391 46.8835 6.86719 46.6687C6.75 46.4539 6.63281 46.2 6.51562 45.907C7.88281 45.7507 9.47461 45.5066 11.291 45.1746C13.1074 44.823 14.7578 44.3738 16.2422 43.8269C16.8477 43.5925 17.5215 43.241 18.2637 42.7722C19.0254 42.3035 19.6113 41.7371 20.0215 41.073C20.2949 40.6238 20.4316 40.1257 20.4316 39.5789C20.4316 39.3445 20.4023 39.1003 20.3438 38.8464C20.168 38.0066 19.4844 37.0789 18.293 36.0632C17.4922 35.3796 16.6914 34.8132 15.8906 34.364C15.0898 33.9148 14.2891 33.4851 13.4883 33.075C12.6875 32.6843 11.877 32.2937 11.0566 31.9031C10.2363 31.4929 9.38672 31.0437 8.50781 30.5554C6.90625 29.6765 5.66602 28.6707 4.78711 27.5378C3.92773 26.405 3.38086 25.1843 3.14648 23.8757Z"/>
<path d="M38.7949 34.0417C38.7949 32.8894 38.9609 31.3562 39.293 29.4421C39.6445 27.5085 40.1914 25.5554 40.9336 23.5828C41.6758 21.5906 42.6523 19.7839 43.8633 18.1628C45.0938 16.5417 46.5879 15.448 48.3457 14.8816C50.2988 14.2761 52.1641 13.866 53.9414 13.6511C54.5273 13.573 55.1426 13.5437 55.7871 13.5632C57.0371 13.5632 58.3359 13.7097 59.6836 14.0027C59.7617 14.1199 59.8203 14.2664 59.8594 14.4421C59.8984 14.6179 59.957 14.7644 60.0352 14.8816L55.9043 16.3464L58.7754 17.9578L57.5156 19.0417L58.0137 20.5359C57.4863 20.575 56.9004 20.6335 56.2559 20.7117C55.6113 20.7898 54.9668 20.8972 54.3223 21.0339C53.6973 21.1511 53.0918 21.2878 52.5059 21.4441C51.9199 21.6003 51.4121 21.7957 50.9824 22.03C50.1816 22.4207 49.498 23.1628 48.9316 24.2566C48.3848 25.3308 47.9355 26.5125 47.584 27.8015C47.252 29.071 46.998 30.3406 46.8223 31.6101C46.666 32.8601 46.5879 33.866 46.5879 34.6277C46.5879 35.3113 46.6367 36.1218 46.7344 37.0593C46.8516 37.9968 47.0273 38.9734 47.2617 39.989C47.4961 40.9851 47.8184 41.9324 48.2285 42.8308C48.6582 43.7292 49.2148 44.4617 49.8984 45.0281C50.25 45.3406 50.7871 45.5847 51.5098 45.7605C52.2324 45.9363 53.0332 46.073 53.9121 46.1707C54.791 46.2488 55.6895 46.3074 56.6074 46.3464C57.5449 46.3855 58.4141 46.405 59.2148 46.405C59.1367 46.4832 59.0488 46.5906 58.9512 46.7273C58.873 46.864 58.7754 47.03 58.6582 47.2253L59.918 48.6023L56.9297 50.3015L60.2109 51.5027C60.1328 51.8152 60.0547 52.0496 59.9766 52.2058C57.5742 52.7332 55.1621 53.0652 52.7402 53.2019C52.3887 53.2214 52.0371 53.2312 51.6855 53.2312C49.6934 53.2312 47.8574 52.8894 46.1777 52.2058C44.6543 51.6003 43.4141 50.614 42.457 49.2468C41.5 47.8601 40.748 46.3074 40.2012 44.5886C39.6738 42.8699 39.3027 41.0828 39.0879 39.2273C38.8926 37.3718 38.7949 35.6433 38.7949 34.0417Z"/>
<path d="M70.166 38.3777C70.0879 37.3035 70.0391 36.2292 70.0195 35.155C70.0195 33.9636 70.0781 32.7722 70.1953 31.5808C70.5859 27.4988 71.1523 24.2957 71.8945 21.9714C72.6367 19.6472 73.7305 17.8699 75.1758 16.6394C75.7031 16.1902 76.3672 15.741 77.168 15.2917C77.9883 14.823 78.8965 14.4226 79.8926 14.0906C80.9082 13.739 81.9922 13.4949 83.1445 13.3582C83.6914 13.2996 84.2383 13.2703 84.7852 13.2703L86.6309 13.3875L86.5137 16.8738L89.4434 15.0867L90.7031 16.9324L92.6953 16.1414C94.1797 17.6648 95.3125 19.8523 96.0938 22.7039C96.8945 25.5359 97.2949 29.0125 97.2949 33.1335C97.2949 34.5007 97.2168 35.9949 97.0605 37.616C96.9043 39.2371 96.6211 40.8289 96.2109 42.3914C95.8203 43.9343 95.293 45.3601 94.6289 46.6687C93.9648 47.9578 93.1348 48.9636 92.1387 49.6863C90.7324 50.6824 89.3164 51.4441 87.8906 51.9714C86.4844 52.4988 85.1074 52.8308 83.7598 52.9675C83.1348 53.0261 82.5098 53.0554 81.8848 53.0554C81.2012 53.0554 80.5469 53.0164 79.9219 52.9382C78.7305 52.782 77.6465 52.5183 76.6699 52.1472C75.4395 51.698 74.3652 50.7996 73.4473 49.4519C72.5488 48.0847 71.8164 46.4636 71.25 44.5886C70.7031 42.7136 70.3418 40.6433 70.166 38.3777ZM77.3145 32.8992C77.2559 33.6609 77.2363 34.4128 77.2559 35.155C77.2559 36.5613 77.3535 37.948 77.5488 39.3152C77.8418 41.3855 78.3887 43.0457 79.1895 44.2957C79.5801 44.9402 80.1562 45.4285 80.918 45.7605C81.6797 46.073 82.4902 46.2292 83.3496 46.2292C84.209 46.2292 85.0293 46.0828 85.8105 45.7898C86.5918 45.4773 87.1875 44.9988 87.5977 44.3542C87.9883 43.7097 88.3691 42.782 88.7402 41.571C89.1309 40.3406 89.4336 38.9929 89.6484 37.5281C89.8828 36.0437 90.0195 34.5007 90.0586 32.8992C90.0586 32.6843 90.0586 32.4695 90.0586 32.2546C90.0586 30.8875 89.9414 29.5691 89.707 28.2996C89.4531 26.8347 89.0234 25.5261 88.418 24.3738C87.832 23.2214 87.0312 22.3425 86.0156 21.7371C85.3711 21.3464 84.6191 21.1511 83.7598 21.1511C83.7207 21.1511 83.6719 21.1511 83.6133 21.1511C82.6953 21.1707 81.9043 21.4832 81.2402 22.0886C80.0879 23.1238 79.1797 24.6375 78.5156 26.6296C77.8711 28.6023 77.4707 30.6921 77.3145 32.8992Z"/>
<path d="M106.693 16.1414L106.898 15.0281C109.105 14.3054 111.312 13.7585 113.52 13.3875C115.746 12.9968 117.895 12.7917 119.965 12.7722C120.082 12.7722 120.189 12.7722 120.287 12.7722C122.24 12.7722 124.066 12.9382 125.766 13.2703C127.543 13.6218 129.086 14.2273 130.395 15.0867C131.586 15.8484 132.533 16.8054 133.236 17.9578C133.959 19.1101 134.389 20.4089 134.525 21.8542C134.564 22.2058 134.584 22.5769 134.584 22.9675C134.584 24.0808 134.418 25.2625 134.086 26.5125C133.656 28.1726 132.914 29.8621 131.859 31.5808C131.664 31.9324 131.361 32.3718 130.951 32.8992C130.541 33.4265 130.092 33.9929 129.604 34.5984C129.135 35.1843 128.617 35.7703 128.051 36.3562C127.504 36.9226 126.967 37.4304 126.439 37.8796C126.928 39.032 127.445 40.2527 127.992 41.5417C128.559 42.8113 129.105 44.0417 129.633 45.2332C130.18 46.405 130.697 47.489 131.186 48.4851C131.674 49.4617 132.055 50.2234 132.328 50.7703L131.918 51.2097L128.432 49.2761L128.256 52.2644L127.055 51.7371L125.971 52.4695L118.705 41.2488L114.926 42.7429L114.633 51.7371L113.666 51.6199L111.674 48.4851L110.121 52.5281L109.037 52.0886C108.998 50.8972 108.93 49.1882 108.832 46.9617C108.734 44.7351 108.646 42.3132 108.568 39.696C108.49 37.0789 108.451 34.4226 108.451 31.7273C108.451 29.032 108.529 26.5808 108.686 24.3738L108.861 22.03L106.957 20.6531L110.121 17.782L106.693 16.1414ZM115.336 35.0085C116.781 34.4421 118.266 33.6804 119.789 32.7234C121.312 31.7664 122.631 30.7214 123.744 29.5886C124.857 28.4363 125.668 27.2449 126.176 26.0144C126.41 25.4675 126.527 24.9207 126.527 24.3738C126.527 23.7292 126.361 23.0945 126.029 22.4695C125.678 21.825 124.926 21.4148 123.773 21.239C122.836 21.0828 121.869 21.0046 120.873 21.0046C120.658 21.0046 120.434 21.0046 120.199 21.0046C118.754 21.0828 117.172 21.2683 115.453 21.5613L115.336 35.0085Z"/>
<path d="M143.719 17.489L144.539 15.5554L144.129 14.7644L161.297 13.6218L161.824 15.9656L158.104 18.5437L161.648 19.6277L161.18 20.946L152.42 21.7371L152.215 30.9656L160.975 30.6726L159.979 33.8074L161.707 34.5105L161.414 36.1218L152.332 37.03L152.713 46.8152L161.766 46.4636L161.18 49.5691L162.791 50.3015L162.117 52.5867L147.967 53.407L148.201 50.3601L144.539 50.5945L144.92 22.5281L144.188 21.3269L146.766 19.1003L143.719 17.489Z"/>
</mask>
<path d="M3.14648 23.8757C3.04883 23.2898 3 22.6941 3 22.0886C3 21.3269 3.08789 20.5457 3.26367 19.7449C3.55664 18.2996 4.08398 16.8054 4.8457 15.2625C5.56836 13.7781 6.7207 12.3816 8.30273 11.073C9.9043 9.74487 11.7207 8.573 13.752 7.55737C15.8027 6.52222 17.9609 5.67261 20.2266 5.00854C22.4922 4.32495 24.6602 3.8562 26.7305 3.60229L25.9102 5.59448L28.3711 6.3855L24.5918 9.43237L29.6309 10.6921L29.1914 12.6843C27.7852 12.9187 26.2324 13.2605 24.5332 13.7097C22.8535 14.1394 21.2617 14.6765 19.7578 15.321C18.2539 15.9656 16.9453 16.7371 15.832 17.6355C14.7383 18.5339 14.0938 19.5593 13.8984 20.7117C13.8594 20.9656 13.8398 21.2195 13.8398 21.4734C13.8398 22.4304 14.1621 23.2703 14.8066 23.9929C15.6074 24.8914 16.6133 25.6628 17.8242 26.3074C19.0547 26.9324 20.3242 27.489 21.6328 27.9773C22.9609 28.4656 24.0254 28.905 24.8262 29.2957C25.7441 29.7839 26.6035 30.3601 27.4043 31.0242C28.2051 31.6687 28.8496 32.4597 29.3379 33.3972C29.8457 34.3347 30.168 35.4285 30.3047 36.6785C30.3438 37.03 30.3633 37.3914 30.3633 37.7625C30.3633 38.739 30.2363 39.8328 29.9824 41.0437C29.4941 43.114 28.4785 44.9597 26.9355 46.5808C25.4121 48.1824 23.5273 49.5007 21.2812 50.5359C19.1133 51.532 16.7891 52.2253 14.3086 52.616C11.8281 53.0261 9.43555 53.2703 7.13086 53.3484L6.57422 52.7625L9.82617 49.95L6.28125 48.9832L7.48242 47.9578C7.4043 47.7234 7.30664 47.4988 7.18945 47.2839C7.11133 47.0886 7.00391 46.8835 6.86719 46.6687C6.75 46.4539 6.63281 46.2 6.51562 45.907C7.88281 45.7507 9.47461 45.5066 11.291 45.1746C13.1074 44.823 14.7578 44.3738 16.2422 43.8269C16.8477 43.5925 17.5215 43.241 18.2637 42.7722C19.0254 42.3035 19.6113 41.7371 20.0215 41.073C20.2949 40.6238 20.4316 40.1257 20.4316 39.5789C20.4316 39.3445 20.4023 39.1003 20.3438 38.8464C20.168 38.0066 19.4844 37.0789 18.293 36.0632C17.4922 35.3796 16.6914 34.8132 15.8906 34.364C15.0898 33.9148 14.2891 33.4851 13.4883 33.075C12.6875 32.6843 11.877 32.2937 11.0566 31.9031C10.2363 31.4929 9.38672 31.0437 8.50781 30.5554C6.90625 29.6765 5.66602 28.6707 4.78711 27.5378C3.92773 26.405 3.38086 25.1843 3.14648 23.8757Z" fill="#F5F5F5"/>
<path d="M38.7949 34.0417C38.7949 32.8894 38.9609 31.3562 39.293 29.4421C39.6445 27.5085 40.1914 25.5554 40.9336 23.5828C41.6758 21.5906 42.6523 19.7839 43.8633 18.1628C45.0938 16.5417 46.5879 15.448 48.3457 14.8816C50.2988 14.2761 52.1641 13.866 53.9414 13.6511C54.5273 13.573 55.1426 13.5437 55.7871 13.5632C57.0371 13.5632 58.3359 13.7097 59.6836 14.0027C59.7617 14.1199 59.8203 14.2664 59.8594 14.4421C59.8984 14.6179 59.957 14.7644 60.0352 14.8816L55.9043 16.3464L58.7754 17.9578L57.5156 19.0417L58.0137 20.5359C57.4863 20.575 56.9004 20.6335 56.2559 20.7117C55.6113 20.7898 54.9668 20.8972 54.3223 21.0339C53.6973 21.1511 53.0918 21.2878 52.5059 21.4441C51.9199 21.6003 51.4121 21.7957 50.9824 22.03C50.1816 22.4207 49.498 23.1628 48.9316 24.2566C48.3848 25.3308 47.9355 26.5125 47.584 27.8015C47.252 29.071 46.998 30.3406 46.8223 31.6101C46.666 32.8601 46.5879 33.866 46.5879 34.6277C46.5879 35.3113 46.6367 36.1218 46.7344 37.0593C46.8516 37.9968 47.0273 38.9734 47.2617 39.989C47.4961 40.9851 47.8184 41.9324 48.2285 42.8308C48.6582 43.7292 49.2148 44.4617 49.8984 45.0281C50.25 45.3406 50.7871 45.5847 51.5098 45.7605C52.2324 45.9363 53.0332 46.073 53.9121 46.1707C54.791 46.2488 55.6895 46.3074 56.6074 46.3464C57.5449 46.3855 58.4141 46.405 59.2148 46.405C59.1367 46.4832 59.0488 46.5906 58.9512 46.7273C58.873 46.864 58.7754 47.03 58.6582 47.2253L59.918 48.6023L56.9297 50.3015L60.2109 51.5027C60.1328 51.8152 60.0547 52.0496 59.9766 52.2058C57.5742 52.7332 55.1621 53.0652 52.7402 53.2019C52.3887 53.2214 52.0371 53.2312 51.6855 53.2312C49.6934 53.2312 47.8574 52.8894 46.1777 52.2058C44.6543 51.6003 43.4141 50.614 42.457 49.2468C41.5 47.8601 40.748 46.3074 40.2012 44.5886C39.6738 42.8699 39.3027 41.0828 39.0879 39.2273C38.8926 37.3718 38.7949 35.6433 38.7949 34.0417Z" fill="#F5F5F5"/>
<path d="M70.166 38.3777C70.0879 37.3035 70.0391 36.2292 70.0195 35.155C70.0195 33.9636 70.0781 32.7722 70.1953 31.5808C70.5859 27.4988 71.1523 24.2957 71.8945 21.9714C72.6367 19.6472 73.7305 17.8699 75.1758 16.6394C75.7031 16.1902 76.3672 15.741 77.168 15.2917C77.9883 14.823 78.8965 14.4226 79.8926 14.0906C80.9082 13.739 81.9922 13.4949 83.1445 13.3582C83.6914 13.2996 84.2383 13.2703 84.7852 13.2703L86.6309 13.3875L86.5137 16.8738L89.4434 15.0867L90.7031 16.9324L92.6953 16.1414C94.1797 17.6648 95.3125 19.8523 96.0938 22.7039C96.8945 25.5359 97.2949 29.0125 97.2949 33.1335C97.2949 34.5007 97.2168 35.9949 97.0605 37.616C96.9043 39.2371 96.6211 40.8289 96.2109 42.3914C95.8203 43.9343 95.293 45.3601 94.6289 46.6687C93.9648 47.9578 93.1348 48.9636 92.1387 49.6863C90.7324 50.6824 89.3164 51.4441 87.8906 51.9714C86.4844 52.4988 85.1074 52.8308 83.7598 52.9675C83.1348 53.0261 82.5098 53.0554 81.8848 53.0554C81.2012 53.0554 80.5469 53.0164 79.9219 52.9382C78.7305 52.782 77.6465 52.5183 76.6699 52.1472C75.4395 51.698 74.3652 50.7996 73.4473 49.4519C72.5488 48.0847 71.8164 46.4636 71.25 44.5886C70.7031 42.7136 70.3418 40.6433 70.166 38.3777ZM77.3145 32.8992C77.2559 33.6609 77.2363 34.4128 77.2559 35.155C77.2559 36.5613 77.3535 37.948 77.5488 39.3152C77.8418 41.3855 78.3887 43.0457 79.1895 44.2957C79.5801 44.9402 80.1562 45.4285 80.918 45.7605C81.6797 46.073 82.4902 46.2292 83.3496 46.2292C84.209 46.2292 85.0293 46.0828 85.8105 45.7898C86.5918 45.4773 87.1875 44.9988 87.5977 44.3542C87.9883 43.7097 88.3691 42.782 88.7402 41.571C89.1309 40.3406 89.4336 38.9929 89.6484 37.5281C89.8828 36.0437 90.0195 34.5007 90.0586 32.8992C90.0586 32.6843 90.0586 32.4695 90.0586 32.2546C90.0586 30.8875 89.9414 29.5691 89.707 28.2996C89.4531 26.8347 89.0234 25.5261 88.418 24.3738C87.832 23.2214 87.0312 22.3425 86.0156 21.7371C85.3711 21.3464 84.6191 21.1511 83.7598 21.1511C83.7207 21.1511 83.6719 21.1511 83.6133 21.1511C82.6953 21.1707 81.9043 21.4832 81.2402 22.0886C80.0879 23.1238 79.1797 24.6375 78.5156 26.6296C77.8711 28.6023 77.4707 30.6921 77.3145 32.8992Z" fill="#F5F5F5"/>
<path d="M106.693 16.1414L106.898 15.0281C109.105 14.3054 111.312 13.7585 113.52 13.3875C115.746 12.9968 117.895 12.7917 119.965 12.7722C120.082 12.7722 120.189 12.7722 120.287 12.7722C122.24 12.7722 124.066 12.9382 125.766 13.2703C127.543 13.6218 129.086 14.2273 130.395 15.0867C131.586 15.8484 132.533 16.8054 133.236 17.9578C133.959 19.1101 134.389 20.4089 134.525 21.8542C134.564 22.2058 134.584 22.5769 134.584 22.9675C134.584 24.0808 134.418 25.2625 134.086 26.5125C133.656 28.1726 132.914 29.8621 131.859 31.5808C131.664 31.9324 131.361 32.3718 130.951 32.8992C130.541 33.4265 130.092 33.9929 129.604 34.5984C129.135 35.1843 128.617 35.7703 128.051 36.3562C127.504 36.9226 126.967 37.4304 126.439 37.8796C126.928 39.032 127.445 40.2527 127.992 41.5417C128.559 42.8113 129.105 44.0417 129.633 45.2332C130.18 46.405 130.697 47.489 131.186 48.4851C131.674 49.4617 132.055 50.2234 132.328 50.7703L131.918 51.2097L128.432 49.2761L128.256 52.2644L127.055 51.7371L125.971 52.4695L118.705 41.2488L114.926 42.7429L114.633 51.7371L113.666 51.6199L111.674 48.4851L110.121 52.5281L109.037 52.0886C108.998 50.8972 108.93 49.1882 108.832 46.9617C108.734 44.7351 108.646 42.3132 108.568 39.696C108.49 37.0789 108.451 34.4226 108.451 31.7273C108.451 29.032 108.529 26.5808 108.686 24.3738L108.861 22.03L106.957 20.6531L110.121 17.782L106.693 16.1414ZM115.336 35.0085C116.781 34.4421 118.266 33.6804 119.789 32.7234C121.312 31.7664 122.631 30.7214 123.744 29.5886C124.857 28.4363 125.668 27.2449 126.176 26.0144C126.41 25.4675 126.527 24.9207 126.527 24.3738C126.527 23.7292 126.361 23.0945 126.029 22.4695C125.678 21.825 124.926 21.4148 123.773 21.239C122.836 21.0828 121.869 21.0046 120.873 21.0046C120.658 21.0046 120.434 21.0046 120.199 21.0046C118.754 21.0828 117.172 21.2683 115.453 21.5613L115.336 35.0085Z" fill="#F5F5F5"/>
<path d="M143.719 17.489L144.539 15.5554L144.129 14.7644L161.297 13.6218L161.824 15.9656L158.104 18.5437L161.648 19.6277L161.18 20.946L152.42 21.7371L152.215 30.9656L160.975 30.6726L159.979 33.8074L161.707 34.5105L161.414 36.1218L152.332 37.03L152.713 46.8152L161.766 46.4636L161.18 49.5691L162.791 50.3015L162.117 52.5867L147.967 53.407L148.201 50.3601L144.539 50.5945L144.92 22.5281L144.188 21.3269L146.766 19.1003L143.719 17.489Z" fill="#F5F5F5"/>
<path d="M3.14648 23.8757C3.04883 23.2898 3 22.6941 3 22.0886C3 21.3269 3.08789 20.5457 3.26367 19.7449C3.55664 18.2996 4.08398 16.8054 4.8457 15.2625C5.56836 13.7781 6.7207 12.3816 8.30273 11.073C9.9043 9.74487 11.7207 8.573 13.752 7.55737C15.8027 6.52222 17.9609 5.67261 20.2266 5.00854C22.4922 4.32495 24.6602 3.8562 26.7305 3.60229L25.9102 5.59448L28.3711 6.3855L24.5918 9.43237L29.6309 10.6921L29.1914 12.6843C27.7852 12.9187 26.2324 13.2605 24.5332 13.7097C22.8535 14.1394 21.2617 14.6765 19.7578 15.321C18.2539 15.9656 16.9453 16.7371 15.832 17.6355C14.7383 18.5339 14.0938 19.5593 13.8984 20.7117C13.8594 20.9656 13.8398 21.2195 13.8398 21.4734C13.8398 22.4304 14.1621 23.2703 14.8066 23.9929C15.6074 24.8914 16.6133 25.6628 17.8242 26.3074C19.0547 26.9324 20.3242 27.489 21.6328 27.9773C22.9609 28.4656 24.0254 28.905 24.8262 29.2957C25.7441 29.7839 26.6035 30.3601 27.4043 31.0242C28.2051 31.6687 28.8496 32.4597 29.3379 33.3972C29.8457 34.3347 30.168 35.4285 30.3047 36.6785C30.3438 37.03 30.3633 37.3914 30.3633 37.7625C30.3633 38.739 30.2363 39.8328 29.9824 41.0437C29.4941 43.114 28.4785 44.9597 26.9355 46.5808C25.4121 48.1824 23.5273 49.5007 21.2812 50.5359C19.1133 51.532 16.7891 52.2253 14.3086 52.616C11.8281 53.0261 9.43555 53.2703 7.13086 53.3484L6.57422 52.7625L9.82617 49.95L6.28125 48.9832L7.48242 47.9578C7.4043 47.7234 7.30664 47.4988 7.18945 47.2839C7.11133 47.0886 7.00391 46.8835 6.86719 46.6687C6.75 46.4539 6.63281 46.2 6.51562 45.907C7.88281 45.7507 9.47461 45.5066 11.291 45.1746C13.1074 44.823 14.7578 44.3738 16.2422 43.8269C16.8477 43.5925 17.5215 43.241 18.2637 42.7722C19.0254 42.3035 19.6113 41.7371 20.0215 41.073C20.2949 40.6238 20.4316 40.1257 20.4316 39.5789C20.4316 39.3445 20.4023 39.1003 20.3438 38.8464C20.168 38.0066 19.4844 37.0789 18.293 36.0632C17.4922 35.3796 16.6914 34.8132 15.8906 34.364C15.0898 33.9148 14.2891 33.4851 13.4883 33.075C12.6875 32.6843 11.877 32.2937 11.0566 31.9031C10.2363 31.4929 9.38672 31.0437 8.50781 30.5554C6.90625 29.6765 5.66602 28.6707 4.78711 27.5378C3.92773 26.405 3.38086 25.1843 3.14648 23.8757Z" stroke="black" stroke-width="6" mask="url(#path-1-outside-1_1_7)"/>
<path d="M38.7949 34.0417C38.7949 32.8894 38.9609 31.3562 39.293 29.4421C39.6445 27.5085 40.1914 25.5554 40.9336 23.5828C41.6758 21.5906 42.6523 19.7839 43.8633 18.1628C45.0938 16.5417 46.5879 15.448 48.3457 14.8816C50.2988 14.2761 52.1641 13.866 53.9414 13.6511C54.5273 13.573 55.1426 13.5437 55.7871 13.5632C57.0371 13.5632 58.3359 13.7097 59.6836 14.0027C59.7617 14.1199 59.8203 14.2664 59.8594 14.4421C59.8984 14.6179 59.957 14.7644 60.0352 14.8816L55.9043 16.3464L58.7754 17.9578L57.5156 19.0417L58.0137 20.5359C57.4863 20.575 56.9004 20.6335 56.2559 20.7117C55.6113 20.7898 54.9668 20.8972 54.3223 21.0339C53.6973 21.1511 53.0918 21.2878 52.5059 21.4441C51.9199 21.6003 51.4121 21.7957 50.9824 22.03C50.1816 22.4207 49.498 23.1628 48.9316 24.2566C48.3848 25.3308 47.9355 26.5125 47.584 27.8015C47.252 29.071 46.998 30.3406 46.8223 31.6101C46.666 32.8601 46.5879 33.866 46.5879 34.6277C46.5879 35.3113 46.6367 36.1218 46.7344 37.0593C46.8516 37.9968 47.0273 38.9734 47.2617 39.989C47.4961 40.9851 47.8184 41.9324 48.2285 42.8308C48.6582 43.7292 49.2148 44.4617 49.8984 45.0281C50.25 45.3406 50.7871 45.5847 51.5098 45.7605C52.2324 45.9363 53.0332 46.073 53.9121 46.1707C54.791 46.2488 55.6895 46.3074 56.6074 46.3464C57.5449 46.3855 58.4141 46.405 59.2148 46.405C59.1367 46.4832 59.0488 46.5906 58.9512 46.7273C58.873 46.864 58.7754 47.03 58.6582 47.2253L59.918 48.6023L56.9297 50.3015L60.2109 51.5027C60.1328 51.8152 60.0547 52.0496 59.9766 52.2058C57.5742 52.7332 55.1621 53.0652 52.7402 53.2019C52.3887 53.2214 52.0371 53.2312 51.6855 53.2312C49.6934 53.2312 47.8574 52.8894 46.1777 52.2058C44.6543 51.6003 43.4141 50.614 42.457 49.2468C41.5 47.8601 40.748 46.3074 40.2012 44.5886C39.6738 42.8699 39.3027 41.0828 39.0879 39.2273C38.8926 37.3718 38.7949 35.6433 38.7949 34.0417Z" stroke="black" stroke-width="6" mask="url(#path-1-outside-1_1_7)"/>
<path d="M70.166 38.3777C70.0879 37.3035 70.0391 36.2292 70.0195 35.155C70.0195 33.9636 70.0781 32.7722 70.1953 31.5808C70.5859 27.4988 71.1523 24.2957 71.8945 21.9714C72.6367 19.6472 73.7305 17.8699 75.1758 16.6394C75.7031 16.1902 76.3672 15.741 77.168 15.2917C77.9883 14.823 78.8965 14.4226 79.8926 14.0906C80.9082 13.739 81.9922 13.4949 83.1445 13.3582C83.6914 13.2996 84.2383 13.2703 84.7852 13.2703L86.6309 13.3875L86.5137 16.8738L89.4434 15.0867L90.7031 16.9324L92.6953 16.1414C94.1797 17.6648 95.3125 19.8523 96.0938 22.7039C96.8945 25.5359 97.2949 29.0125 97.2949 33.1335C97.2949 34.5007 97.2168 35.9949 97.0605 37.616C96.9043 39.2371 96.6211 40.8289 96.2109 42.3914C95.8203 43.9343 95.293 45.3601 94.6289 46.6687C93.9648 47.9578 93.1348 48.9636 92.1387 49.6863C90.7324 50.6824 89.3164 51.4441 87.8906 51.9714C86.4844 52.4988 85.1074 52.8308 83.7598 52.9675C83.1348 53.0261 82.5098 53.0554 81.8848 53.0554C81.2012 53.0554 80.5469 53.0164 79.9219 52.9382C78.7305 52.782 77.6465 52.5183 76.6699 52.1472C75.4395 51.698 74.3652 50.7996 73.4473 49.4519C72.5488 48.0847 71.8164 46.4636 71.25 44.5886C70.7031 42.7136 70.3418 40.6433 70.166 38.3777ZM77.3145 32.8992C77.2559 33.6609 77.2363 34.4128 77.2559 35.155C77.2559 36.5613 77.3535 37.948 77.5488 39.3152C77.8418 41.3855 78.3887 43.0457 79.1895 44.2957C79.5801 44.9402 80.1562 45.4285 80.918 45.7605C81.6797 46.073 82.4902 46.2292 83.3496 46.2292C84.209 46.2292 85.0293 46.0828 85.8105 45.7898C86.5918 45.4773 87.1875 44.9988 87.5977 44.3542C87.9883 43.7097 88.3691 42.782 88.7402 41.571C89.1309 40.3406 89.4336 38.9929 89.6484 37.5281C89.8828 36.0437 90.0195 34.5007 90.0586 32.8992C90.0586 32.6843 90.0586 32.4695 90.0586 32.2546C90.0586 30.8875 89.9414 29.5691 89.707 28.2996C89.4531 26.8347 89.0234 25.5261 88.418 24.3738C87.832 23.2214 87.0312 22.3425 86.0156 21.7371C85.3711 21.3464 84.6191 21.1511 83.7598 21.1511C83.7207 21.1511 83.6719 21.1511 83.6133 21.1511C82.6953 21.1707 81.9043 21.4832 81.2402 22.0886C80.0879 23.1238 79.1797 24.6375 78.5156 26.6296C77.8711 28.6023 77.4707 30.6921 77.3145 32.8992Z" stroke="black" stroke-width="6" mask="url(#path-1-outside-1_1_7)"/>
<path d="M106.693 16.1414L106.898 15.0281C109.105 14.3054 111.312 13.7585 113.52 13.3875C115.746 12.9968 117.895 12.7917 119.965 12.7722C120.082 12.7722 120.189 12.7722 120.287 12.7722C122.24 12.7722 124.066 12.9382 125.766 13.2703C127.543 13.6218 129.086 14.2273 130.395 15.0867C131.586 15.8484 132.533 16.8054 133.236 17.9578C133.959 19.1101 134.389 20.4089 134.525 21.8542C134.564 22.2058 134.584 22.5769 134.584 22.9675C134.584 24.0808 134.418 25.2625 134.086 26.5125C133.656 28.1726 132.914 29.8621 131.859 31.5808C131.664 31.9324 131.361 32.3718 130.951 32.8992C130.541 33.4265 130.092 33.9929 129.604 34.5984C129.135 35.1843 128.617 35.7703 128.051 36.3562C127.504 36.9226 126.967 37.4304 126.439 37.8796C126.928 39.032 127.445 40.2527 127.992 41.5417C128.559 42.8113 129.105 44.0417 129.633 45.2332C130.18 46.405 130.697 47.489 131.186 48.4851C131.674 49.4617 132.055 50.2234 132.328 50.7703L131.918 51.2097L128.432 49.2761L128.256 52.2644L127.055 51.7371L125.971 52.4695L118.705 41.2488L114.926 42.7429L114.633 51.7371L113.666 51.6199L111.674 48.4851L110.121 52.5281L109.037 52.0886C108.998 50.8972 108.93 49.1882 108.832 46.9617C108.734 44.7351 108.646 42.3132 108.568 39.696C108.49 37.0789 108.451 34.4226 108.451 31.7273C108.451 29.032 108.529 26.5808 108.686 24.3738L108.861 22.03L106.957 20.6531L110.121 17.782L106.693 16.1414ZM115.336 35.0085C116.781 34.4421 118.266 33.6804 119.789 32.7234C121.312 31.7664 122.631 30.7214 123.744 29.5886C124.857 28.4363 125.668 27.2449 126.176 26.0144C126.41 25.4675 126.527 24.9207 126.527 24.3738C126.527 23.7292 126.361 23.0945 126.029 22.4695C125.678 21.825 124.926 21.4148 123.773 21.239C122.836 21.0828 121.869 21.0046 120.873 21.0046C120.658 21.0046 120.434 21.0046 120.199 21.0046C118.754 21.0828 117.172 21.2683 115.453 21.5613L115.336 35.0085Z" stroke="black" stroke-width="6" mask="url(#path-1-outside-1_1_7)"/>
<path d="M143.719 17.489L144.539 15.5554L144.129 14.7644L161.297 13.6218L161.824 15.9656L158.104 18.5437L161.648 19.6277L161.18 20.946L152.42 21.7371L152.215 30.9656L160.975 30.6726L159.979 33.8074L161.707 34.5105L161.414 36.1218L152.332 37.03L152.713 46.8152L161.766 46.4636L161.18 49.5691L162.791 50.3015L162.117 52.5867L147.967 53.407L148.201 50.3601L144.539 50.5945L144.92 22.5281L144.188 21.3269L146.766 19.1003L143.719 17.489Z" stroke="black" stroke-width="6" mask="url(#path-1-outside-1_1_7)"/>
</svg>
